<?xml version="1.0" encoding="UTF-8"?>
<svg width="391px" height="16px" viewBox="0 0 391 16" version="1.1" xmlns="http://www.w3.org/2000/svg" xmlns:xlink="http://www.w3.org/1999/xlink">
    <!-- Generator: Sketch 50.2 (55047) - http://www.bohemiancoding.com/sketch -->
    <title>Stroke 1 Copy</title>
    <desc>Created with Sketch.</desc>
    <defs></defs>
    <g id="Page-1" stroke="none" stroke-width="1" fill="none" fill-rule="evenodd">
        <g id="Desktop-HD-Copy-8" transform="translate(-524.000000, -6812.000000)" stroke="#2EF8BB" stroke-width="4">
            <g id="Group-19" transform="translate(243.000000, 6814.000000)">
                <path d="M281,0 C290.309038,0 290.309038,12 299.618077,12 C308.927415,12 308.927415,0 318.236753,0 C327.546091,0 327.546091,12 336.855429,12 C346.164768,12 346.164768,0 355.474106,0 C364.783144,0 364.783144,12 374.092482,12 C383.40212,12 383.40212,0 392.711459,0 C402.020197,0 402.020197,12 411.328936,12 C420.637974,12 420.637974,0 429.947312,0 C439.256051,0 439.256051,12 448.564789,12 C457.873827,12 457.873827,0 467.182866,0 C476.491904,0 476.491904,12 485.801242,12 C495.11088,12 495.11088,0 504.420518,0 C513.730456,0 513.730456,12 523.040094,12 C532.349732,12 532.349732,0 541.65937,0 C550.969008,0 550.969008,12 560.278946,12 C569.588884,12 569.588884,0 578.898522,0 C588.20816,0 588.20816,12 597.517498,12 C606.827436,12 606.827436,0 616.137374,0 C625.447612,0 625.447612,12 634.75755,12 C644.068387,12 644.068387,0 653.378625,0 C662.689462,0 662.689462,12 672,12" id="Stroke-1-Copy"></path>
            </g>
        </g>
    </g>
</svg>