<?xml version="1.0" encoding="UTF-8"?>
<svg width="160px" height="115px" viewBox="0 0 160 115" version="1.1" xmlns="http://www.w3.org/2000/svg" xmlns:xlink="http://www.w3.org/1999/xlink">
    <!-- Generator: Sketch 50.2 (55047) - http://www.bohemiancoding.com/sketch -->
    <title>code</title>
    <desc>Created with Sketch.</desc>
    <defs>
        <polygon id="path-1" points="0.125737189 0.0321119483 33.3446161 0.0321119483 33.3446161 32.9704674 0.125737189 32.9704674"></polygon>
        <polygon id="path-3" points="0.314116876 0.361888148 35.8058846 0.361888148 35.8058846 58.5436782 0.314116876 58.5436782"></polygon>
        <polygon id="path-5" points="0.314116876 0.359625452 35.8058846 0.359625452 35.8058846 58.145621 0.314116876 58.145621"></polygon>
    </defs>
    <g id="code" stroke="none" stroke-width="1" fill="none" fill-rule="evenodd">
        <g id="Page-1-Copy" transform="translate(22.000000, 27.000000)">
            <g id="Group-3" transform="translate(82.590766, 16.052299)">
                <mask id="mask-2" fill="white">
                    <use xlink:href="#path-1"></use>
                </mask>
                <g id="Clip-2"></g>
                <path d="M11.3108758,0.624260545 L30.6663957,11.3804523 C32.1599075,12.2215859 33.3448912,13.8305006 33.3448912,15.5780594 L33.3448912,17.382043 C33.3448912,19.2577667 32.019989,20.9609917 30.3559025,21.7392518 L7.13533123,32.5373592 C4.68557885,33.682784 1.73707213,32.4724706 0.772970962,29.8942572 L0.438502925,29.0849634 C-0.472932302,26.6466031 0.672355431,23.909594 3.03289013,22.9310256 L13.985441,18.3868086 C14.5242843,18.1111328 15.2081555,17.8205448 16.0453082,17.5158505 C16.8808888,17.2123653 17.5930581,16.97659 18.1873185,16.8105397 C17.6472961,16.6444893 16.9587086,16.3825167 16.122735,16.0222037 C15.2859754,15.6630997 14.6256859,15.3455083 14.1399016,15.0678174 L5.95978023,10.820234 C3.55365412,9.57042318 2.67680548,6.49607401 4.0476921,4.11413856 L5.04087745,2.38753763 C6.32333245,0.159561463 9.09929925,-0.621116873 11.3108758,0.624260545" id="Fill-1" fill="#FD84FB" mask="url(#mask-2)"></path>
            </g>
            <g id="Group-6" transform="translate(40.831390, 2.832759)">
                <mask id="mask-4" fill="white">
                    <use xlink:href="#path-3"></use>
                </mask>
                <g id="Clip-5"></g>
                <path d="M30.9037279,0.361888148 L31.0735494,0.361888148 C34.6656511,0.361888148 36.9441222,4.18126167 35.2168749,7.35665474 L9.13118469,56.1070983 C8.30156509,57.6324418 6.97441235,58.5374629 5.44243982,58.5374629 L5.44243982,58.5438787 C1.86863265,58.5438787 -0.877543458,54.677189 0.838568041,51.5021969 L26.9819259,2.78383209 C27.809557,1.25207284 29.1736966,0.361888148 30.9037279,0.361888148" id="Fill-4" fill="#FD84FB" mask="url(#mask-4)"></path>
            </g>
            <path d="M23.8371604,47.574166 L4.84362778,37.0234714 C3.33416044,36.201421 2.7839584,34.6363031 2.7839584,32.9364035 L2.7839584,31.25065 C2.7839584,29.421863 3.48048229,27.7616513 5.16896464,27.0024728 L28.4006478,16.4745693 C30.8861257,15.3578068 33.7152805,16.5378342 34.6932846,19.0515322 L34.9516403,19.8405749 C35.876219,22.2179195 34.6741471,24.8864396 32.2795721,25.8405211 L21.1483469,30.2710269 C20.6005371,30.4871491 19.8968367,30.7563195 19.0492066,31.079717 C18.1999817,31.4035074 17.4723594,31.6459573 16.8711241,31.8078525 C17.4169405,31.9697477 18.1134644,32.2263437 18.9626893,32.5764617 C19.8103194,32.9281515 20.4805293,33.2377958 20.9729202,33.5069662 L29.2702062,37.6486541 C31.7114287,38.8667976 32.6001246,41.8642165 31.2098677,44.1869411 L30.2075432,45.8601202 C28.9046009,48.0362746 26.0814265,48.795846 23.8371604,47.574166" id="Fill-7" fill="#FD84FB"></path>
            <path d="M91.98335,13.7967 L111.448612,24.2806238 C112.950592,25.100466 114.142294,26.6686548 114.142294,28.3719782 L114.142294,30.1302982 C114.142294,31.9585424 112.80988,33.6186541 111.136359,34.3772144 L87.7841308,44.9019928 C85.3204887,46.0184239 82.3552645,44.8387467 81.385697,42.3257948 L81.0493326,41.5369864 C80.1327297,39.1603475 81.284511,36.4926194 83.6584296,35.5388212 L94.6730795,31.1096305 C95.214978,30.8409328 95.9027266,30.5577003 96.7446258,30.2607187 C97.5849439,29.9649155 98.3011511,29.7351083 98.8987809,29.5732611 C98.3556967,29.411414 97.663205,29.1560726 96.8224916,28.80488 C95.9809876,28.4548659 95.3169545,28.1453136 94.8284158,27.8746518 L86.6019146,23.7345861 C84.1821462,22.5164113 83.300326,19.5198821 84.6789853,17.1982398 L85.6778018,15.5153438 C86.9675281,13.3437637 89.7592342,12.5828464 91.98335,13.7967" id="Fill-9" fill="#006BF1"></path>
            <g id="Group-13" transform="translate(38.975418, 0.000000)">
                <mask id="mask-6" fill="white">
                    <use xlink:href="#path-5"></use>
                </mask>
                <g id="Clip-12"></g>
                <path d="M30.9037279,0.359426323 L31.0735494,0.359426323 C34.6656511,0.359426323 36.9441222,4.15281771 35.2168749,7.30660947 L9.13118469,55.7254174 C8.30156509,57.2403844 6.97441235,58.1392489 5.44243982,58.1392489 L5.44243982,58.145621 C1.86863265,58.145621 -0.877543458,54.3052353 0.838568041,51.1518418 L26.9819259,2.76489446 C27.809557,1.24355534 29.1736966,0.359426323 30.9037279,0.359426323" id="Fill-11" fill="#006BF1" mask="url(#mask-6)"></path>
            </g>
            <path d="M21.053202,44.7414074 L2.05966938,34.1907128 C0.550202041,33.3686624 0,31.8035445 0,30.1036448 L0,28.4178914 C0,26.5891044 0.696523888,24.9288926 2.38500624,24.1697142 L25.6166894,13.6418107 C28.1021673,12.5250481 30.9313221,13.7050755 31.9093262,16.2187736 L32.1676819,17.0078162 C33.0922606,19.3851608 31.8901887,22.053681 29.4956137,23.0077624 L18.3643885,27.4382683 C17.8165787,27.6543905 17.1128783,27.9235609 16.2652482,28.2469584 C15.4160233,28.5707488 14.688401,28.8131986 14.0871657,28.9750938 C14.6329821,29.136989 15.329506,29.3935851 16.1787309,29.7437031 C17.026361,30.0953929 17.6965709,30.4050371 18.1889618,30.6742076 L26.4862478,34.8158955 C28.9274703,36.034039 29.8161662,39.0314579 28.4259093,41.3541825 L27.4235848,43.0273616 C26.1206425,45.203516 23.2974681,45.9630874 21.053202,44.7414074" id="Fill-14" fill="#006BF1"></path>
        </g>
    </g>
</svg>