<?xml version="1.0" encoding="UTF-8"?>
<svg width="160px" height="115px" viewBox="0 0 160 115" version="1.1" xmlns="http://www.w3.org/2000/svg" xmlns:xlink="http://www.w3.org/1999/xlink">
    <!-- Generator: Sketch 50.2 (55047) - http://www.bohemiancoding.com/sketch -->
    <title>design</title>
    <desc>Created with Sketch.</desc>
    <defs>
        <polygon id="path-1" points="0.247549103 0.235100003 87.0050969 0.235100003 87.0050969 86.4991607 0.247549103 86.4991607"></polygon>
        <polygon id="path-3" points="0.126064244 0.391722492 15.8663265 0.391722492 15.8663265 16.0423663 0.126064244 16.0423663"></polygon>
    </defs>
    <g id="design" stroke="none" stroke-width="1" fill="none" fill-rule="evenodd">
        <g id="Page-1" transform="translate(33.000000, 13.000000)">
            <g id="Group-3" transform="translate(5.395182, 0.000000)">
                <mask id="mask-2" fill="white">
                    <use xlink:href="#path-1"></use>
                </mask>
                <g id="Clip-2"></g>
                <path d="M86.4942711,10.4870208 L76.6946047,0.743207997 C75.7472951,-0.19920572 73.8035638,0.206555741 72.3534866,1.64836818 L71.2304869,2.76547076 L74.9690938,6.48276931 C75.1964278,6.70931107 74.8212507,7.44884406 74.3068378,7.96032501 C73.7929313,8.47180595 73.0481465,8.84484472 72.8208125,8.61880638 L69.0822055,4.90100441 L65.5020742,8.46123401 L67.1278417,10.0777353 C67.355682,10.3042771 67.159233,10.8661006 66.6453265,11.3775816 C66.1309136,11.8890625 65.5658695,12.0838884 65.3380292,11.8578501 L63.7117554,10.2408454 L59.7736616,14.1564938 L61.3999354,15.7729951 C61.6272694,15.9995369 61.4313267,16.5618639 60.9169139,17.0733448 C60.402501,17.5848258 59.8374569,17.7796517 59.6096166,17.5531099 L57.9833428,15.9366086 L54.4032115,19.4963348 L56.0294853,21.1128361 C56.2573256,21.3393779 56.0608766,21.9012014 55.5464637,22.4126824 C55.0325572,22.9241633 54.4670068,23.1189892 54.2391665,22.8929509 L52.613399,21.2759462 L48.3173427,25.5475169 L52.0559496,29.2653189 C52.2832837,29.4913572 51.9081066,30.2313936 51.3936937,30.7428745 C50.8797871,31.2543555 50.1350024,31.6273943 49.9076683,31.4008525 L46.1690614,27.683554 L43.3048551,30.5314356 L44.9311289,32.1484403 C45.1584629,32.3744786 44.6045577,33.2927279 44.0901448,33.8042088 C43.575732,34.3156898 42.6527254,34.866438 42.4248851,34.6403997 L40.7991176,33.0233949 L37.21848,36.5831211 L38.8447538,38.1996224 C39.0720878,38.4261642 38.697417,39.1662006 38.1830041,39.6776815 C37.6685913,40.188659 36.9243128,40.5622012 36.6964724,40.3356595 L35.070705,38.7191582 L31.4905737,42.2783809 L33.1163411,43.8953856 C33.3441815,44.1219274 33.1477325,44.683751 32.6338259,45.1952319 C32.119413,45.7067129 31.5538627,45.9015388 31.3265286,45.674997 L29.7002549,44.0584957 L25.4041986,48.3300664 L29.1428055,52.0478684 C29.3701395,52.2739067 29.1741968,52.8362337 28.659784,53.3472112 C28.1453711,53.8586922 27.580327,54.0540215 27.3524867,53.8274798 L23.6138798,50.1101812 L20.391711,53.3139851 L22.0179847,54.9304864 C22.2453188,55.1570282 22.0493761,55.7193552 21.5349632,56.2303327 C21.0210566,56.7418136 20.4555063,56.937143 20.2276659,56.7106012 L18.6018985,55.0935965 L14.3053359,59.3656706 L15.9316096,60.9821719 C16.1589437,61.2087137 15.7842729,61.9487501 15.26986,62.4602311 C14.7554471,62.9712086 14.0111687,63.3447508 13.7838346,63.118209 L12.1575609,61.5012043 L8.57742956,65.0609305 L10.203197,66.6779352 C10.4310374,66.9039735 10.2350947,67.4663005 9.72068179,67.9777815 C9.20626892,68.4892624 8.64071855,68.6840883 8.41338451,68.4575466 L6.78711075,66.8410452 L3.20697945,70.4007714 L6.94558637,74.11807 C7.17342672,74.3446117 6.61901521,75.2623576 6.10510865,75.7738385 C5.59069578,76.2853195 4.66718291,76.8360676 4.43984888,76.6100293 L0.822250493,73.013553 C0.103287624,74.2293271 0.0334165841,75.5271597 0.757442573,76.2470591 L10.557109,85.9908718 C11.5044185,86.9332855 13.4481498,86.5275241 14.8982271,85.0857116 L85.583416,14.8033964 C87.0334933,13.3610805 87.4415806,11.428931 86.4942711,10.4870208" id="Fill-1" fill="#FD84FB" mask="url(#mask-2)"></path>
            </g>
            <polyline id="Fill-4" fill="#2EF8BB" points="71.756144 84.9368319 4.49598466 18.8199888 16.3651553 7.15257532 83.6253146 73.2694184"></polyline>
            <g id="Group-8" transform="translate(69.238164, 71.525753)">
                <mask id="mask-4" fill="white">
                    <use xlink:href="#path-3"></use>
                </mask>
                <g id="Clip-7"></g>
                <path d="M14.0395168,1.62462596 C16.8817603,4.45066991 16.3488071,9.56249231 12.84922,13.0421333 C9.34963297,16.5222918 4.20850848,17.0522074 1.36626502,14.2261634 C-1.47649889,11.399602 0.992573246,8.21234606 4.49216032,4.73270506 C7.99174739,1.25306406 11.1972734,-1.20141799 14.0395168,1.62462596" id="Fill-6" fill="#FD84FB" mask="url(#mask-4)"></path>
            </g>
            <path d="M81.4800613,70.1940605 C81.9425406,70.6539039 81.9425406,71.399202 81.4800613,71.8590454 L69.5738719,83.6978774 C69.1113926,84.1577208 68.3613168,84.1577208 67.8988375,83.6978774 L67.7866294,83.5863088 C67.32415,83.1264654 67.32415,82.3811673 67.7866294,81.9208213 L79.6933242,70.0824919 C80.1558035,69.6226485 80.9053738,69.6226485 81.3678532,70.0824919 L81.4800613,70.1940605 Z" id="Fill-9" fill="#006BF1"></path>
            <polygon id="Fill-11" fill="#006BF1" points="10.8311923 13.7789334 4.57764298 19.6695821 2.28882149 11.6229349 0 3.57628766 8.54237085 5.7322862 17.0847417 7.88828474"></polygon>
        </g>
    </g>
</svg>