<?xml version="1.0" encoding="UTF-8"?>
<svg width="160px" height="115px" viewBox="0 0 160 115" version="1.1" xmlns="http://www.w3.org/2000/svg" xmlns:xlink="http://www.w3.org/1999/xlink">
    <!-- Generator: Sketch 50.2 (55047) - http://www.bohemiancoding.com/sketch -->
    <title>human</title>
    <desc>Created with Sketch.</desc>
    <defs>
        <polygon id="path-1" points="0 0.0332526316 11.6081522 0.0332526316 11.6081522 11.1172168 0 11.1172168"></polygon>
        <polygon id="path-3" points="0 0.0332526316 11.6081522 0.0332526316 11.6081522 11.1172168 0 11.1172168"></polygon>
    </defs>
    <g id="human" stroke="none" stroke-width="1" fill="none" fill-rule="evenodd">
        <g id="Page-1-Copy-3" transform="translate(49.000000, 40.000000)">
            <path d="M14.8758836,26.6455171 C18.6063094,32.7198917 25.5652374,36.6314305 32.8402153,35.9158193 C40.288114,35.1835659 46.1078373,30.2491766 48.8208154,23.5103973 C50.6704848,18.9171715 43.1565265,16.9226772 41.326934,21.4678968 C37.8905383,30.0033853 26.2225954,30.3170253 21.5861166,22.7685427 C18.9948954,18.5491246 12.2717097,22.4049763 14.8758836,26.6455171" id="Fill-1" fill="#FD84FB"></path>
            <g id="Group-5">
                <mask id="mask-2" fill="white">
                    <use xlink:href="#path-1"></use>
                </mask>
                <g id="Clip-4"></g>
                <path d="M11.6081522,5.57511158 C11.6081522,8.63620105 9.00986078,11.1172168 5.80407609,11.1172168 C2.59829139,11.1172168 0,8.63620105 0,5.57511158 C0,2.51402211 2.59829139,0.0330063158 5.80407609,0.0330063158 C9.00986078,0.0330063158 11.6081522,2.51402211 11.6081522,5.57511158" id="Fill-3" fill="#FD84FB" mask="url(#mask-2)"></path>
            </g>
            <g id="Group-8" transform="translate(50.004348, 0.000000)">
                <mask id="mask-4" fill="white">
                    <use xlink:href="#path-3"></use>
                </mask>
                <g id="Clip-7"></g>
                <path d="M11.6081522,5.57511158 C11.6081522,8.63620105 9.00986078,11.1172168 5.80407609,11.1172168 C2.59829139,11.1172168 0,8.63620105 0,5.57511158 C0,2.51402211 2.59829139,0.0330063158 5.80407609,0.0330063158 C9.00986078,0.0330063158 11.6081522,2.51402211 11.6081522,5.57511158" id="Fill-6" fill="#FD84FB" mask="url(#mask-4)"></path>
            </g>
        </g>
    </g>
</svg>