<?xml version="1.0" encoding="UTF-8"?>
<svg width="160px" height="115px" viewBox="0 0 160 115" version="1.1" xmlns="http://www.w3.org/2000/svg" xmlns:xlink="http://www.w3.org/1999/xlink">
    <!-- Generator: Sketch 50.2 (55047) - http://www.bohemiancoding.com/sketch -->
    <title>motion</title>
    <desc>Created with Sketch.</desc>
    <defs></defs>
    <g id="motion" stroke="none" stroke-width="1" fill="none" fill-rule="evenodd">
        <g id="Page-1-Copy-2" transform="translate(23.000000, 24.000000)">
            <path d="M113.372206,54.7974477 C113.372206,57.413013 106.505079,59.5330297 98.0336134,59.5330297 C89.5621481,59.5330297 82.6950209,57.413013 82.6950209,54.7974477 C82.6950209,52.1818825 89.5621481,50.0618658 98.0336134,50.0618658 C106.505079,50.0618658 113.372206,52.1818825 113.372206,54.7974477" id="Fill-1" fill="#2EF8BB"></path>
            <path d="M113.372206,15.5597691 C113.372206,24.1533897 106.505079,31.1195382 98.0336134,31.1195382 C89.5621481,31.1195382 82.6950209,24.1533897 82.6950209,15.5597691 C82.6950209,6.96614852 89.5621481,0 98.0336134,0 C106.505079,0 113.372206,6.96614852 113.372206,15.5597691" id="Fill-3" fill="#006BF1"></path>
            <path d="M0,10.8241872 C25.4382879,17.0057241 40.9531176,40.2276998 41.2204244,66.2981467 C49.3579544,50.3786829 62.5810575,36.8299385 78.6936489,29.3121893" id="Stroke-5" stroke="#FD84FB" stroke-width="4" stroke-linecap="round"></path>
            <path d="M107.763244,12.0995833 C108.564992,10.5737731 107.546199,8.463638 105.487567,7.38559137 C103.428934,6.30754475 101.110506,6.6699575 100.308099,8.1957677 C99.5063505,9.72092136 100.525144,11.831713 102.583776,12.9097596 C104.642409,13.9878063 106.960837,13.6253935 107.763244,12.0995833" id="Fill-7" fill="#FFFFFF"></path>
        </g>
    </g>
</svg>