<svg xmlns="http://www.w3.org/2000/svg" viewBox="0 0 217.61 189.56"><defs><style>.cls-1{isolation:isolate;}.cls-2{fill:#fd84fb;}.cls-2,.cls-3{mix-blend-mode:multiply;}.cls-3{fill:#0372fd;}</style></defs><title>Asset 1</title><g class="cls-1"><g id="Layer_2" data-name="Layer 2"><g id="Layer_1-2" data-name="Layer 1"><path class="cls-2" d="M5.49,182.41A4.21,4.21,0,0,1,.1,177.34L34.94,4.16A4.83,4.83,0,0,1,38.26.66L40.57.1a4.84,4.84,0,0,1,4.55,1.6l110,138.23a4.2,4.2,0,0,1-2.48,7Z"/><path class="cls-3" d="M125.82,187.59a4.48,4.48,0,0,1-6.12,1.24L72.1,155.31A83.85,83.85,0,0,1,51.85,38.62C78.23,1.16,130.62-7.76,168.27,18.75l47.6,33.52a4.49,4.49,0,0,1,.9,6.18Z"/></g></g></g></svg>