<svg viewBox="0 0 1236.67 1500.2" xmlns="http://www.w3.org/2000/svg" xmlns:xlink="http://www.w3.org/1999/xlink"><clipPath id="a"><rect height="1314.03" rx="6" width="738.67" x="36.74" y="8.02"/></clipPath><pattern id="b" height="3.22" patternTransform="matrix(1.83 0 0 1.83 90.43 81.09)" patternUnits="userSpaceOnUse" viewBox="0 0 3.22 3.22" width="3.22"><path d="m0 0h3.22v3.22h-3.22z" fill="none"/><path d="m0 0h3.22v3.22h-3.22z" fill="#fff"/><path d="m.06.8h-.06v1.72h.06a.85.85 0 0 0 .85-.86.86.86 0 0 0 -.85-.86z" fill="#44789f"/><path d="m1.55 2.3a.87.87 0 0 0 -.86.86s0 0 0 .06h1.72v-.06a.86.86 0 0 0 -.86-.86z" fill="#44789f"/><path d="m3.22.81h-.06a.86.86 0 0 0 0 1.72h.06z" fill="#44789f"/><path d="m.69.06a.86.86 0 0 0 .86.85.85.85 0 0 0 .86-.85v-.06h-1.71s-.01 0-.01.06z" fill="#44789f"/></pattern><pattern id="c" height="3.22" patternTransform="matrix(1.07 0 0 1.07 -.74 30.43)" patternUnits="userSpaceOnUse" viewBox="0 0 3.22 3.22" width="3.22"><path d="m0 0h3.22v3.22h-3.22z" fill="none"/><path d="m0 0h3.22v3.22h-3.22z" fill="#fff"/><path d="m.06.8h-.06v1.72h.06a.85.85 0 0 0 .85-.86.86.86 0 0 0 -.85-.86z" fill="#43779e"/><path d="m1.55 2.3a.87.87 0 0 0 -.86.86s0 0 0 .06h1.72v-.06a.86.86 0 0 0 -.86-.86z" fill="#43779e"/><path d="m3.22.81h-.06a.86.86 0 0 0 0 1.72h.06z" fill="#43779e"/><path d="m.69.06a.86.86 0 0 0 .86.85.85.85 0 0 0 .86-.85v-.06h-1.71s-.01 0-.01.06z" fill="#43779e"/></pattern><pattern id="d" height="3.22" patternTransform="matrix(1.05 0 0 1.05 54.96 104.24)" patternUnits="userSpaceOnUse" viewBox="0 0 3.22 3.22" width="3.22"><path d="m0 0h3.22v3.22h-3.22z" fill="none"/><path d="m0 0h3.22v3.22h-3.22z" fill="#fff"/><path d="m.06.8h-.06v1.72h.06a.85.85 0 0 0 .85-.86.86.86 0 0 0 -.85-.86z" fill="#43779e"/><path d="m1.55 2.3a.87.87 0 0 0 -.86.86s0 0 0 .06h1.72v-.06a.86.86 0 0 0 -.86-.86z" fill="#43779e"/><path d="m3.22.81h-.06a.86.86 0 0 0 0 1.72h.06z" fill="#43779e"/><path d="m.69.06a.86.86 0 0 0 .86.85.85.85 0 0 0 .86-.85v-.06h-1.71s-.01 0-.01.06z" fill="#43779e"/></pattern><clipPath id="e"><path d="m778.64 933.73h406.01v456.74h-406.01z"/></clipPath><rect fill="#fff" height="1314.03" rx="6" width="738.67" x="36.74" y="8.02"/><g clip-path="url(#a)"><path d="m36.74 8.02h738.67v1314.03h-738.67z" fill="#fff"/><path d="m19.78 0h772.78v60.5h-772.78z" fill="#3e6b93"/><text fill="#fff" font-family="HelveticaNeue, Helvetica Neue" font-size="27.56" transform="translate(349.35 42.68)"><tspan letter-spacing="-.06em">1</tspan><tspan letter-spacing="-.02em" x="13.62" y="0">0</tspan><tspan letter-spacing="-.02em" x="28.44" y="0">:</tspan><tspan letter-spacing=".01em" x="35.57" y="0">0</tspan><tspan x="51.16" y="0">0</tspan><tspan letter-spacing="0em" x="74.15" y="0">A</tspan><tspan letter-spacing="0em" x="91.91" y="0">M</tspan></text><circle cx="57.01" cy="33.49" fill="#fff" r="5.74"/><circle cx="73.09" cy="33.49" fill="#fff" r="5.74"/><circle cx="89.17" cy="33.49" fill="#fff" r="5.74"/><circle cx="105.25" cy="33.49" fill="#fff" r="5.74"/><circle cx="121.33" cy="33.49" fill="#fff" r="5.74"/><path d="m754.76 21.43a1.15 1.15 0 0 1 1.15 1.15v19.53a1.15 1.15 0 0 1 -1.15 1.15h-47.09a1.16 1.16 0 0 1 -1.15-1.15v-19.53a1.16 1.16 0 0 1 1.15-1.15zm0-.57h-47.09a1.73 1.73 0 0 0 -1.67 1.72v19.53a1.73 1.73 0 0 0 1.72 1.72h47.09a1.73 1.73 0 0 0 1.73-1.72v-19.53a1.73 1.73 0 0 0 -1.73-1.72z" fill="#fff"/><rect fill="#fff" height="16.08" rx=".55" width="43.65" x="709.39" y="24.31"/><path d="m758.78 30.05v4.59a2.3 2.3 0 1 0 0-4.59z" fill="#fff"/><path d="m0 60.83h812.35v690.26h-812.35z" fill="#f7f8f9"/><path d="m38.64 747.3h6.89" fill="none" stroke="#e6e6e6" stroke-miterlimit="10" stroke-width="4.59"/><path d="m59.14 747.3h700.88" fill="none" stroke="#e6e6e6" stroke-dasharray="13.61 13.61" stroke-miterlimit="10" stroke-width="4.59"/><path d="m766.82 747.3h6.89" fill="none" stroke="#e6e6e6" stroke-miterlimit="10" stroke-width="4.59"/><path d="m28.6 1078.05h755.16v117.52h-755.16z" fill="#dce0e5"/><text fill="#7d8689" font-family="RobotoSlab-Light, Roboto Slab" font-size="73.5" letter-spacing=".05em" transform="translate(251.23 881.65)">01<tspan letter-spacing=".18em" x="79.18" y="0">:</tspan><tspan x="106.3" y="0">33</tspan><tspan letter-spacing=".17em" x="193.19" y="0">:</tspan><tspan x="219.87" y="0">09</tspan></text><text fill="#7d8689" font-family="BlendaScript, Blenda Script" font-size="43.64" transform="matrix(.96 0 0 1 277.79 939.74)">hr</text><text fill="#7d8689" font-family="BlendaScript, Blenda Script" font-size="43.64" transform="matrix(.96 0 0 1 371.39 939.74)">m<tspan letter-spacing="0em" x="31.99" y="0">i</tspan><tspan x="43.73" y="0">n</tspan></text><text fill="#7d8689" font-family="BlendaScript, Blenda Script" font-size="43.64" transform="matrix(.96 0 0 1 480.5 939.74)"><tspan letter-spacing=".03em">s</tspan><tspan letter-spacing=".03em" x="20.64" y="0">e</tspan><tspan x="37.53" y="0">c</tspan></text><text fill="#ccd4d8" transform="matrix(.96 0 0 1 136.84 878.02)"/><path d="m116.16 980.42h580.02v29.86h-580.02z" fill="#dce0e5"/><path d="m506.67 967.55v76.95" fill="none" stroke="#fff" stroke-miterlimit="10" stroke-width="3.45"/><path d="m586.5 960.66v76.95" fill="none" stroke="#fff" stroke-miterlimit="10" stroke-width="3.45"/><path d="m117.49 980.99h37.16v28.71h-37.16z" fill="#b3c9d7"/><text fill="#ad5359" transform="matrix(.96 0 0 1 623.73 878.84)"/><path d="m732.37 1167.78c0 5.27-7 9.54-15.61 9.54h-621.17c-8.62 0-15.61-4.27-15.61-9.54v-60.78c0-5.27 7-9.54 15.61-9.54h621.17c8.62 0 15.61 4.27 15.61 9.54z" fill="#43779e"/><text fill="#fff" font-family="BlendaScript, Blenda Script" font-size="45.94" transform="matrix(.96 0 0 1 246.79 1153.12)">Add <tspan letter-spacing=".04em" x="89.17" y="0">t</tspan><tspan x="103.09" y="0">o </tspan><tspan letter-spacing="-.04em" x="135.8" y="0">F</tspan><tspan x="163.68" y="0">avourit</tspan><tspan letter-spacing=".02em" x="295.02" y="0">e</tspan><tspan x="312.16" y="0">s</tspan></text><path d="m450 469.76c0 5.9-4 10.68-8.89 10.68h-347.33c-4.91 0-8.89-4.78-8.89-10.68v-140.15c0-5.89 4-10.67 8.89-10.67h347.28c4.91 0 8.89 4.78 8.89 10.67z" fill="#b3c9d7"/><path d="m460.48 399.69h6.51" fill="none" stroke="#e6e6e6" stroke-miterlimit="10" stroke-width="4.34"/><path d="m479.75 399.69h44.62" fill="none" stroke="#e6e6e6" stroke-dasharray="12.75 12.75" stroke-miterlimit="10" stroke-width="4.34"/><path d="m530.75 399.69h6.51" fill="none" stroke="#e6e6e6" stroke-miterlimit="10" stroke-width="4.34"/><path d="m727.46 460.46c0 11-6.18 20-13.79 20h-163.67c-7.61 0-13.78-8.95-13.78-20v-121.55c0-11 6.17-20 13.78-20h163.67c7.61 0 13.79 8.94 13.79 20z" fill="#b3c9d7"/><path d="m574.83 327.53c0 8.5-1.49 28 3.78 33.71 7.2 7.84 38.9 4 38.9 4v9l15.48-4v-41.41" fill="#44789f" stroke="#44789f" stroke-miterlimit="10" stroke-width="1.15"/><path d="m688.85 327.53c0 8.5 1.5 28-3.77 33.71-7.21 7.84-38.9 4-38.9 4v9l-15.49-4v-41.41" fill="#44789f" stroke="#44789f" stroke-miterlimit="10" stroke-width="1.15"/><path d="m630.49 471.69s45.93 2 55-8.54c5.92-6.91 2.18-27.57 0-36.4-2.49-10.11-11.48-30-19.33-36.86-10.34-9-13.07-9.89-34.42-13.49-16.74 2.93-23.93 4.5-34.27 13.49-7.85 6.83-16.84 26.75-19.33 36.86-2.18 8.83-5.92 29.49 0 36.4 9 10.56 55 8.54 55 8.54" fill="url(#b)"/><ellipse cx="631.84" cy="427.78" fill="#44789f" rx="34.39" ry="35.19"/><path d="m665.05 396.34s8.12 13.13 10.91 19c1.29 2.69 3.59 8.25 5.17 12.49s2.19 12.64 2.29 15.65c.17 4.75-1.6 15.79-1.6 15.79l-4.47-2.2s.69-6.1.91-7.28c.71-3.81.52-10.8 0-14.64a70.58 70.58 0 0 0 -3.45-12.92c-2.45-6.47-9.76-25.89-9.76-25.89z" fill="#fff"/><circle cx="631.79" cy="429.22" fill="#fff" r="4.86"/><circle cx="631.79" cy="429.22" fill="#44789f" r="3.23"/><path d="m631.79 425.26v-27.02" fill="#fff"/><path d="m630.64 425.26 1.15-27.02 1.15 27.02z" fill="#fff"/><path d="m602.67 429.22h11.27" fill="none" stroke="#fff" stroke-miterlimit="10" stroke-width="2.3"/><path d="m649.75 429.22h11.27" fill="none" stroke="#fff" stroke-miterlimit="10" stroke-width="2.3"/><path d="m631.79 447.11v11.27" fill="none" stroke="#fff" stroke-miterlimit="10" stroke-width="2.3"/><path d="m616.29 413.72 5.23 5.23" fill="none" stroke="#fff" stroke-miterlimit="10" stroke-width="1.15"/><path d="m616.29 444.73 5.23-5.23" fill="none" stroke="#fff" stroke-miterlimit="10" stroke-width="1.15"/><path d="m647.3 444.73-5.23-5.23" fill="none" stroke="#fff" stroke-miterlimit="10" stroke-width="1.15"/><path d="m647.3 413.72-5.23 5.23" fill="none" stroke="#fff" stroke-miterlimit="10" stroke-width="1.15"/><path d="m582.93 442.12s-2.6 6.46-2.59 8.74 1.17 6.69 2.59 8.36c2.07 2.44 8.36 5 11.48 5.71 2.8.66 11.49 0 11.49 0s-7.45-2.8-9.62-3.54c-2.86-1-8.17-2.13-10.48-4.07a9.53 9.53 0 0 1 -2.59-4.58c-.6-2.59-.28-10.62-.28-10.62z" fill="#fff"/><text fill="#43779e" font-family="BlendaScript, Blenda Script" font-size="43.64" transform="matrix(.96 0 0 1 219.25 409.53)">1<tspan letter-spacing="-.02em" x="13.35" y="0">.</tspan><tspan x="24.57" y="0">17kg</tspan></text><path d="m450.54 670c0 5.9-4 10.68-8.88 10.68h-347.29c-4.91 0-8.89-4.78-8.89-10.68v-140.17c0-5.89 4-10.67 8.89-10.67h347.29c4.9 0 8.88 4.78 8.88 10.67z" fill="#b3c9d7"/><path d="m461.07 599.91h6.52" fill="none" stroke="#e6e6e6" stroke-miterlimit="10" stroke-width="4.34"/><path d="m480.34 599.91h44.63" fill="none" stroke="#e6e6e6" stroke-dasharray="12.75 12.75" stroke-miterlimit="10" stroke-width="4.34"/><path d="m531.34 599.91h6.51" fill="none" stroke="#e6e6e6" stroke-miterlimit="10" stroke-width="4.34"/><path d="m726.86 660.81c0 11-6.17 20-13.78 20h-163.66c-7.61 0-13.78-8.94-13.78-20v-121.54c0-11 6.17-20 13.78-20h163.66c7.61 0 13.78 8.94 13.78 20z" fill="#b3c9d7"/><g stroke-miterlimit="10"><path d="m593.86 576.75-6.59 5.62 6.69 7.89 6.59-5.62z" fill="#43779e" stroke="#43779e" stroke-width="1.87"/><path d="m583.25 578.22 6.47 7.63" fill="#264c74" stroke="#43779e" stroke-width=".97"/><path d="m585.19 576.58 6.46 7.62" fill="#264c74" stroke="#43779e" stroke-width=".97"/><path d="m586.93 575.09 6.47 7.62" fill="#264c74" stroke="#43779e" stroke-width=".97"/><path d="m588.68 573.6 6.47 7.62" fill="#264c74" stroke="#43779e" stroke-width=".97"/><path d="m590.42 572.11 6.47 7.63" fill="#264c74" stroke="#43779e" stroke-width=".97"/><path d="m582.87 578.55 7.9-6.73" fill="none" stroke="#43779e" stroke-width="2.02"/><path d="m624.26 555.41h13.97v16.73h-13.97z" fill="#43779e" stroke="#43779e" stroke-width="1.87"/><ellipse cx="631.25" cy="621.61" fill="url(#c)" rx="51.66" ry="51.77" stroke="#43779e" stroke-width=".93"/><path d="m624.26 546.1v16.17" fill="none" stroke="#43779e" stroke-width="1.87"/><path d="m628.03 546.1v16.17" fill="none" stroke="#43779e" stroke-width="1.87"/><path d="m631.43 546.1v16.17" fill="none" stroke="#43779e" stroke-width="1.87"/><path d="m634.84 546.1v16.17" fill="none" stroke="#43779e" stroke-width="1.87"/><path d="m638.24 546.1v16.17" fill="none" stroke="#43779e" stroke-width="1.87"/><ellipse cx="631.25" cy="621.61" fill="#43779e" rx="37.43" ry="37.51" stroke="#43779e" stroke-width="1.87"/><path d="m631.25 569.6a21.22 21.22 0 1 1 21.18-21.22 21.2 21.2 0 0 1 -21.18 21.22zm16.66-21.22a15.9 15.9 0 1 0 -15.91 15.93 15.92 15.92 0 0 0 15.91-15.93z" fill="#43779e" stroke="#43779e" stroke-width="1.87"/><path d="m623.23 546.1h16.04" fill="none" stroke="#43779e" stroke-width="1.97"/><path d="m631.25 585.62v6.19" fill="none" stroke="#fff" stroke-width="1.87"/><path d="m613.18 590.36 3.08 5.36" fill="none" stroke="#fff" stroke-width="1.87"/><path d="m599.89 603.52 5.35 3.1" fill="none" stroke="#fff" stroke-width="1.87"/><path d="m594.94 621.58h6.18" fill="none" stroke="#fff" stroke-width="1.87"/><path d="m599.67 639.69 5.35-3.09" fill="none" stroke="#fff" stroke-width="1.87"/><path d="m612.8 653.01 3.09-5.36" fill="none" stroke="#fff" stroke-width="1.87"/><path d="m630.82 657.96v-6.19" fill="none" stroke="#fff" stroke-width="1.87"/><path d="m648.89 653.23-3.09-5.36" fill="none" stroke="#fff" stroke-width="1.87"/><path d="m662.18 640.07-5.35-3.1" fill="none" stroke="#fff" stroke-width="1.87"/><path d="m667.13 622.01h-6.18" fill="none" stroke="#fff" stroke-width="1.87"/><path d="m662.4 603.9-5.35 3.09" fill="none" stroke="#fff" stroke-width="1.87"/><path d="m649.27 590.58-3.09 5.36" fill="none" stroke="#fff" stroke-width="1.87"/></g><ellipse cx="631.03" cy="621.79" fill="#fff" rx="3.2" ry="3.21"/><ellipse cx="631.03" cy="621.79" fill="#43779e" rx="2.12" ry="2.13"/><path d="m631.03 619.18 3.89-30.21" fill="#fff"/><path d="m629.18 618.94 5.74-29.97-2.04 30.45z" fill="#fff"/><text fill="#43779e" font-family="BlendaScript, Blenda Script" font-size="43.64" transform="matrix(.96 0 0 1 201.15 609.75)">Medium</text><path d="m450.83 199.47h6.89" fill="none" stroke="#e6e6e6" stroke-miterlimit="10" stroke-width="4.59"/><path d="m472.86 199.47h52.97" fill="none" stroke="#e6e6e6" stroke-dasharray="15.14 15.14" stroke-miterlimit="10" stroke-width="4.59"/><path d="m533.4 199.47h6.89" fill="none" stroke="#e6e6e6" stroke-miterlimit="10" stroke-width="4.59"/><path d="m450.11 269.54c0 5.9-4 10.68-8.89 10.68h-347.28c-4.91 0-8.89-4.78-8.89-10.68v-140.15c0-5.9 4-10.68 8.89-10.68h347.28c4.91 0 8.89 4.78 8.89 10.68z" fill="#b3c9d7"/><path d="m727.3 260.24c0 11-6.18 20-13.79 20h-163.66c-7.61 0-13.78-9-13.78-20v-121.55c0-11 6.17-20 13.78-20h163.66c7.61 0 13.79 9 13.79 20z" fill="#b3c9d7"/><path d="m708.64 148.37c2.16-1.35-4.63-5-7-4.53-1.35.27-2.93 3.19-4 4.13-6.14 5.26-25 16-26 17.67s2.43 7.43 4.24 6.26c3.26-2.12 29.99-21.8 32.76-23.53z" fill="#fff"/><path d="m669.21 158.58c-2.1-.11-5.56 3-7.51 3.76a113.13 113.13 0 0 1 -13.48 4.09 135.46 135.46 0 0 1 -16.9 2.22c-4.31.2-12.92-.78-17.24-.68a135.38 135.38 0 0 0 -15.7 1.37 61.37 61.37 0 0 0 -9.38 2.73c-1.35.54-4.55 1.21-5.79 2-.93.58-3.17 1.74-4.17 2.21a43 43 0 0 1 -6.43 2.3 28.2 28.2 0 0 0 -6.14 3.07c-1.18.8-4.07 2.28-5.19 3.16-.82.64-2.88 2.87-3.61 3.61a14.48 14.48 0 0 0 -3.15 5.52 11.19 11.19 0 0 0 .34 5.63c1.22 2.66 6.06 6.34 8.37 8.19 2.85 2.3 5.37 9.62 7.68 12.46a44.54 44.54 0 0 0 6.82 6.49c1 .72 3.61 1.42 4.61 2.22 1.61 1.29 3.44 5.27 5.12 6.48 1.33 1 4.88 1.19 6.14 2.22 2.34 1.9 5 7.6 7.54 9.2 1.13.7 2.86 1 4.07 1.55 1.89.88 5 4.74 6.86 5.65 1.51.72 4.14 1.41 5.77 1 2.53-.63 6.76-4.07 8.53-6 1.53-1.63 3.63-4.82 5-6.58 2-2.52 6.78-7.55 8.65-10.14.89-1.24 2.48-3.63 3.49-4.77 1.73-1.93 6.14-4.46 7.94-6.32 3.55-3.65 7.55-13.22 10.42-17.41 2.56-3.74 8.17-10.88 11.09-14.34 2.4-2.83 8-7.85 10.07-10.92 1.48-2.16 3-7.32 4.61-9.38v-1.15l.91-3.64s-.27-3.59-1-4.43c-2.68-2.86-12.55-1.04-18.34-1.37z" fill="url(#d)"/><path d="m583.15 174c2.62-1.06 8.25-3.26 11-4 3.48-.93 9.92-1.57 13.5-2 3.16-.35 10.5-.43 13.67-.38 3 .05 9.73.75 12.71.69 2.64-.05 6.69-.86 10.43-1.35a69.33 69.33 0 0 0 7.55-1.66c2.28-.53 5.58-1.65 8.65-2.7 1.62-.55-4.42 3.15-6 3.73a91.46 91.46 0 0 1 -14.36 3.32c-4.15.56-12.56.6-16.75.73-2.43.08-7.33-.08-9.75.19a105 105 0 0 0 -11.8 2.43c-2.11.56-6.16 2.26-8.28 2.76-3.26.76-10.28 1.54-13.53 2.35-.64.16-14.23 3.85-13.69 3.48 3.25-2.26 15.14-7.01 16.65-7.59z" fill="#fff"/><path d="m554.54 198.33a13.89 13.89 0 0 1 2.63-2.09 11.77 11.77 0 0 1 3.15-.92 21.78 21.78 0 0 1 8.19.51c.87.28 2.47 1.13 3.3 1.52.51.24 1.46.68 1.93 1 1 .55 2.09.92 3 1.35 1.24.58 4.13 1.35 5.24 2.15 3.17 2.29 7.67 8.87 10.07 11.95 2.75 3.52 8 10.77 10.41 14.5 2.15 3.28 7.68 13 7.68 13.66s3.85 3 3.93 4.43a2.85 2.85 0 0 1 -1.71 2c-4.85 1-12.21-2.62-16.24-5.52-.68-.49-4.31-3.36-5-3.8a44.24 44.24 0 0 1 -4-3.65c-1.57-1.36-4.78-4.17-6.31-5.49-1.82-1.57-5.21-4.18-7-5.77s-4.89-6-6.31-8.19c-1.16-1.76-2.75-5.73-4.1-7.34s-4.69-3.49-6-4.95a23.41 23.41 0 0 1 -2.86-5.35z" fill="#43779e"/><path d="m666.29 164.82c-.83 1.44-.3 5-.52 6.65-.27 2.11-.58 6.47-1.53 8.36-.57 1.12-2.39 2.56-2.9 4.1s-.25 3.62.51 4.44c.28.31 1.26 1 1.54.68 2.26-2.58 6.24-6.38 9.74-9.88a44.71 44.71 0 0 0 3.27-3.9 24 24 0 0 0 2.69-7c.7-2.77-2.17-3.56-3.42-3.93-1.73-.51-5.4-1.44-7.16-1a4.53 4.53 0 0 0 -2.22 1.48z" fill="#43779e" opacity=".35"/><path d="m583.17 215.39c-1.06-.21-3.52-.73-4.32 0s-.62 4 0 5.13c.93 1.67 4.64 4.54 6.48 4 1-.26 1.65-2.55 1.89-3.51s.57-3.21 0-4.05-2.98-1.37-4.05-1.57z" fill="#fff" stroke="#fff" stroke-miterlimit="10" stroke-width="3.13"/><path d="m596.26 242.74c-1.81-1.22 3.72 3.74 5.16 4.95 1.77 1.48 5.56 4.42 7.67 5.36a27.26 27.26 0 0 0 5.15 1.84c.79.12 3 .43 3.72.05s3.49-1.24 3-2.07c-1.15-1.82-4.95-5.43-6.18-6.91-2.66-3.18-7.44-10.07-9.71-13.53s-6.5-10.3-8.84-13.62-6.79-9.72-9.57-12.51c-1.8-1.82-2.66-3.46-4.9-4.69-2.57-1.43-11.26-5.31-14.12-6a30.12 30.12 0 0 0 -7.16-.43c-1 .09-3.27.64-4 1.32-.54.52-2.11 1.62-1.89 2s2-1 2.83-1.26a19.09 19.09 0 0 1 5.39-.37c3 .27 8.89 2 11.78 3a30.9 30.9 0 0 1 6 2.52c1.49 1 3.5 3.61 4.7 5 1.73 1.95 5.16 5.9 6.75 8 1.25 1.62 3.53 5 4.66 6.74 1.81 2.73 5.24 8.29 7 11.05 1 1.63 3.12 4.88 4.17 6.5.91 1.42 3.16 4 3.68 5.65.2.61.59 2.13.12 2.57-.79.74-3.24-.25-4.29-.49a45.19 45.19 0 0 1 -5.4-1.84 40.82 40.82 0 0 1 -5.72-2.83z" fill="#fff"/><path d="m588.82 189.33c-.57 2.69 4.55 6.88 6 9.19 3.13 4.85 8.4 15.31 12.35 19.53 2.82 3 12.81 14.28 13.79 14.35 1.41.11 2.87-4 2.87-4.88s9.17-19.18 13.21-25c1.74-2.5 6.15-6 6.82-6.61s8.65-3.31 8.4-5.16c-.63-4.67-13.07-4.38-18.09-4.53-6.26-.18-19.1-.36-25.56-.57-4.17-.14-12.68.42-16.66 1.65-.86.3-2.95 1.12-3.13 2.03z" fill="#43779e" opacity=".35"/><path d="m674.27 163.7a15.27 15.27 0 0 1 4.94 1.62c1.19.83 1.24 2.37 1.29 3.72a6.86 6.86 0 0 1 -.92 3.37 5.48 5.48 0 0 1 -1.51 1.6 18.24 18.24 0 0 0 -2.82 2.69c-.35.47 2.73-3.74 3.31-6.68a6.17 6.17 0 0 0 -1.07-3.87c-1.78-1.81-7.85-2.84-3.22-2.45z" fill="#fff"/><path d="m580.19 216.3a6.22 6.22 0 0 1 3.37 0 5.67 5.67 0 0 1 2.53 1.69c.69 1.18 1.47 4.59.42 5.48-.67.56-2.58-.49-3.37-.85-1.39-.62-4.79-1.87-5.06-3.37-.16-.89 1.3-2.53 2.11-2.95z" fill="#43779e"/><path d="m703 145c-.44 0-1.6.09-1.7.53-.15.65 1.37 1.52 2 1.83a9.42 9.42 0 0 0 1.84.4c.46.09 1.44.64 1.83.39a1.19 1.19 0 0 0 .27-1.05c-.34-.82-2.2-1.51-3-1.83a3.75 3.75 0 0 0 -1.24-.27z" fill="#43779e"/><text fill="#43779e" font-family="BlendaScript, Blenda Script" font-size="43.64" transform="matrix(.96 0 0 1 108.13 209.32)">L<tspan letter-spacing=".05em" x="22.3" y="0">e</tspan><tspan x="40.15" y="0">g r</tspan><tspan letter-spacing="-.01em" x="91.17" y="0">o</tspan><tspan x="112.47" y="0">a</tspan><tspan letter-spacing=".04em" x="136.6" y="0">s</tspan><tspan x="157.64" y="0">t </tspan><tspan letter-spacing="-.01em" x="178.67" y="0">(</tspan><tspan x="190.5" y="0">b</tspan><tspan letter-spacing="-.02em" x="211.53" y="0">o</tspan><tspan x="232.31" y="0">ne-</tspan><tspan letter-spacing="0em" x="285.64" y="0">i</tspan><tspan x="297.38" y="0">n)</tspan></text><path d="m27.42 1195.1h757.52v134.96h-757.52z" fill="#2d3135"/><path d="m130.55 1219a29.86 29.86 0 1 0 29.86 29.86 29.86 29.86 0 0 0 -29.86-29.86z" fill="#fff"/><path d="m128.4 1252.13 15.93 10.52-10.52-15.93a4 4 0 0 0 -.49-.61 3.9 3.9 0 0 0 -5.52 5.52 4 4 0 0 0 .6.5z" fill="#303030"/><path d="m130.55 1223.61v-4.59" fill="#303030" stroke="#3b3133" stroke-miterlimit="10" stroke-width="2.3"/><path d="m112.68 1231.01-3.25-3.25" fill="#303030" stroke="#3b3133" stroke-miterlimit="10" stroke-width="2.3"/><path d="m105.28 1248.88h-4.59" fill="#303030" stroke="#3b3133" stroke-miterlimit="10" stroke-width="2.3"/><path d="m112.68 1266.75-3.25 3.24" fill="#303030" stroke="#3b3133" stroke-miterlimit="10" stroke-width="2.3"/><path d="m130.55 1274.15v4.59" fill="#303030" stroke="#3b3133" stroke-miterlimit="10" stroke-width="2.3"/><path d="m148.42 1266.75 3.24 3.24" fill="#303030" stroke="#3b3133" stroke-miterlimit="10" stroke-width="2.3"/><path d="m155.82 1248.88h4.59" fill="#303030" stroke="#3b3133" stroke-miterlimit="10" stroke-width="2.3"/><path d="m148.42 1231.01 3.24-3.25" fill="#303030" stroke="#3b3133" stroke-miterlimit="10" stroke-width="2.3"/><text fill="#fff" font-family="RobotoSlab-Regular, Roboto Slab" font-size="21.82" transform="translate(99.49 1310.85)">Ti<tspan letter-spacing="0em" x="20.85" y="0">m</tspan><tspan x="41.36" y="0">er</tspan></text><path d="m327.11 1236.7 1.52 9.93-8.96-4.53-8.97 4.53 1.53-9.93-7.08-7.13 9.92-1.62 4.6-8.93 4.6 8.93 9.92 1.62z" fill="#2d3135"/><text fill="#fff" font-family="RobotoSlab-Light, Roboto Slab" font-size="21.82" transform="translate(265.02 1311.85)"><tspan letter-spacing="-.02em">F</tspan><tspan letter-spacing="-.01em" x="13.04" y="0">av</tspan><tspan x="37.07" y="0">ourites</tspan></text><text style="stroke-miterlimit:10;font-family:RobotoSlab-Light, Roboto Slab;stroke:#fff;fill:#2d3135;font-size:21.82;stroke-width:1.14" transform="translate(485.94 1311.85)">Tips</text><path d="m508 1219a29.86 29.86 0 1 0 29.86 29.86 29.86 29.86 0 0 0 -29.86-29.86z" fill="#2d3135" stroke="#fff" stroke-miterlimit="10" stroke-width="2.3"/><text fill="#fff" font-family="RobotoSlab-Light, Roboto Slab" font-size="21.82" transform="translate(666.16 1310.85)">About</text><path d="m695.57 1221.31a27.57 27.57 0 1 1 -27.57 27.57 27.6 27.6 0 0 1 27.56-27.57m0-2.29a29.86 29.86 0 1 0 29.87 29.86 29.86 29.86 0 0 0 -29.86-29.88z" fill="#fff"/><text fill="#fff" font-family="BlendaScript, Blenda Script" font-size="43.64" transform="translate(688.54 1264.5)">i</text><path d="m311.58 1221.31a27.57 27.57 0 1 1 -27.58 27.57 27.6 27.6 0 0 1 27.57-27.57m0-2.29a29.86 29.86 0 1 0 29.86 29.86 29.86 29.86 0 0 0 -29.85-29.88z" fill="#fff"/><text fill="#fff" transform="translate(296.64 1261.68)"/><path d="m507.44 1260.7c-.93 0-1.85 0-2.77 0a2.29 2.29 0 0 1 -2.63-2.22c-.6-4.07-2.31-7.71-4.14-11.35a10.6 10.6 0 0 1 1.43-12.37 10.19 10.19 0 0 1 11.48-3.34c4.57 1.44 7 4.89 7.67 9.56a10.9 10.9 0 0 1 -1.48 6.63c-1.59 3-3.21 6.07-3.6 9.49-.34 3-1.76 4-4.58 3.6a9.07 9.07 0 0 0 -1.38 0z" fill="#fff"/><path d="m504.77 1269.11h5.23c-1.65 2-3.06 1.83-5.23 0z" fill="#fff"/><path d="m507.72 1261.69h3.31c.47 0 .93.15.92.75a.81.81 0 0 1 -.85.88c-2.38 0-4.77 0-7.15 0a.79.79 0 0 1 -.78-.93c0-.62.52-.68 1-.69 1.16-.03 2.36-.01 3.55-.01z" fill="#fff"/><path d="m507.72 1264.09h3.31c.47 0 .93.14.92.74a.81.81 0 0 1 -.85.88c-2.38 0-4.77 0-7.15 0a.78.78 0 0 1 -.78-.92c0-.62.52-.69 1-.7 1.16-.02 2.36 0 3.55 0z" fill="#fff"/><path d="m507.72 1266.5h3.31c.47 0 .93.14.92.75a.8.8 0 0 1 -.85.87c-2.38 0-4.77 0-7.15 0a.78.78 0 0 1 -.78-.92c0-.62.52-.69 1-.7 1.16-.02 2.36-.01 3.55 0z" fill="#fff"/></g><rect height="595.81" rx="76.42" stroke="#231f20" stroke-miterlimit="10" stroke-width="8.74" width="503.13" x="729.17" y="838.48"/><path d="m780.26 881.55h406.01v508.79h-406.01z"/><ellipse cx="983.27" cy="1084.54" fill="#43779e" opacity=".3" rx="187.86" ry="187.85"/><ellipse cx="983.27" cy="1084.54" fill="#43779e" opacity=".5" rx="169.52" ry="169.51"/><path d="m780.26 881.15h406.01v60.09h-406.01z"/><text fill="#adb3bf" font-family="SanFranciscoText-Regular, San Francisco Text" font-size="41.64" transform="translate(1079.24 926.23)">10:00</text><text fill="#43779e" font-family="SanFranciscoText-Regular, San Francisco Text" font-size="41.64" transform="translate(780.26 926.23)"><tspan letter-spacing="-.01em">T</tspan><tspan x="21.59" y="0">imer</tspan></text><circle cx="970.42" cy="1379.28" fill="#fff" opacity=".4" r="7.44"/><circle cx="996.69" cy="1379.28" fill="#fff" r="7.44"/><text fill="#fff" font-family="SanFranciscoDisplay-Bold, San Francisco Display" font-size="78.08" font-weight="700" transform="translate(840.55 1110.9)">0<tspan letter-spacing="-.04em" x="45.67" y="0">1</tspan><tspan letter-spacing="-.01em" x="74.8" y="0">:</tspan><tspan letter-spacing="0em" x="95.08" y="0">1</tspan><tspan letter-spacing="0em" x="127.37" y="0">0</tspan><tspan letter-spacing="0em" x="172.7" y="0">:</tspan><tspan letter-spacing="0em" x="194.5" y="0">34</tspan></text><path d="m782.87 1226.08h403.41v104.7h-403.41z"/><path d="m780.26 1226.08h406.01" fill="none" opacity=".3" stroke="#fff" stroke-miterlimit="10" stroke-width="1.31"/><path d="m1186.27 1330.78h-403.4" fill="none" opacity=".3" stroke="#fff" stroke-miterlimit="10" stroke-width="1.31"/><text fill="#9e9d9d" font-family="SanFranciscoDisplay-Regular, San Francisco Display" font-size="28.63" letter-spacing=".04em" transform="translate(804.9 1312.25)">Start cooking your lamb.</text><text fill="#43779e" font-family="SanFranciscoText-Medium, San Francisco Text" font-size="44.24" letter-spacing="-.01em" transform="translate(801.15 1271.33)">N<tspan letter-spacing="-.01em" x="30.26" y="0">o</tspan><tspan x="54.89" y="0">w</tspan></text><path d="m778.64 881.68h406.01v508.79h-406.01z"/><g clip-path="url(#e)"><rect fill="#43779e" height="270.89" opacity=".4" rx="15.62" width="400.81" x="781.24" y="943.04"/><path d="m781.24 1010.61v-52a15.61 15.61 0 0 1 15.62-15.61h369.57a15.62 15.62 0 0 1 15.62 15.61v52z" fill="#43779e"/><text fill="#f0f1f1" font-family="SanFranciscoText-Medium, San Francisco Text" font-size="44.24" letter-spacing="-.01em" transform="translate(798.01 992.19)">Sunday Roa<tspan letter-spacing="-.01em" x="236.58" y="0">s</tspan><tspan x="258.75" y="0">t</tspan></text><text fill="#fff" font-family="SanFranciscoDisplay-Bold, San Francisco Display" font-size="26.03" font-weight="700" transform="translate(1103.6 1155.16)">1<tspan letter-spacing="-.01em" x="10.76" y="0">K</tspan><tspan letter-spacing="0em" x="26.74" y="0">g</tspan></text><circle cx="1124.47" cy="1073.81" fill="#43779e" r="39.04"/><path d="m1145 1048.49-20.52.46-20.51-.46c0 3-.53 9.86 1.33 11.88 2.54 2.77 13.72 1.43 13.72 1.43v3.2l5.46-1.43 5.46 1.43v-3.17s11.18 1.34 13.72-1.43c1.85-2.05 1.34-8.92 1.34-11.91z" fill="#f7f8f9" stroke="#f7f8f9" stroke-miterlimit="10" stroke-width=".49"/><path d="m1124 1099.33s16.2.71 19.39-3c2.09-2.44.77-9.73 0-12.84-.88-3.56-4.05-10.59-6.82-13-3.65-3.17-4.61-3.49-12.14-4.76-5.91 1-8.44 1.59-12.09 4.76-2.77 2.41-5.94 9.44-6.82 13-.76 3.11-2.09 10.4 0 12.84 3.2 3.72 19.39 3 19.39 3" fill="#f7f8f9" stroke="#f7f8f9" stroke-miterlimit="10" stroke-width=".49"/><ellipse cx="1124.47" cy="1083.84" fill="#43779e" rx="12.13" ry="12.41"/><path d="m1136.18 1072.75s2.87 4.63 3.85 6.69c.46 1 1.27 2.91 1.83 4.4a23 23 0 0 1 .81 5.52 43.09 43.09 0 0 1 -.57 5.57l-1.58-.77s.25-2.16.32-2.57a20.33 20.33 0 0 0 0-5.17 24.83 24.83 0 0 0 -1.21-4.55z" fill="#43779e"/><circle cx="1124.46" cy="1084.35" fill="#fff" r="1.71"/><circle cx="1124.46" cy="1084.35" fill="#43779e" r="1.14"/><path d="m1124.46 1082.95v-9.52" fill="#fff"/><path d="m1123.8 1082.95.66-9.52.65 9.52z" fill="#fff"/><path d="m1114.18 1084.35h3.98" fill="none" stroke="#fff" stroke-miterlimit="10" stroke-width="1.31"/><path d="m1130.79 1084.35h3.97" fill="none" stroke="#fff" stroke-miterlimit="10" stroke-width="1.31"/><path d="m1124.46 1090.66v3.97" fill="none" stroke="#fff" stroke-miterlimit="10" stroke-width="1.31"/><path d="m1118.99 1078.88 1.84 1.85" fill="none" stroke="#fff" stroke-miterlimit="10" stroke-width=".66"/><path d="m1118.99 1089.82 1.84-1.84" fill="none" stroke="#fff" stroke-miterlimit="10" stroke-width=".66"/><path d="m1129.92 1089.82-1.84-1.84" fill="none" stroke="#fff" stroke-miterlimit="10" stroke-width=".66"/><path d="m1129.92 1078.88-1.84 1.85" fill="none" stroke="#fff" stroke-miterlimit="10" stroke-width=".66"/><path d="m1107.22 1088.9a14.14 14.14 0 0 0 -.91 3.08 6.08 6.08 0 0 0 .91 3 9.86 9.86 0 0 0 4 2 23 23 0 0 0 4 0s-2.63-1-3.39-1.25a13.69 13.69 0 0 1 -3.7-1.44 3.33 3.33 0 0 1 -.91-1.61 24.47 24.47 0 0 1 0-3.78z" fill="#43779e"/><text fill="#fff" font-family="SanFranciscoDisplay-Bold, San Francisco Display" font-size="26.03" font-weight="700" transform="translate(963.72 1155.16)">Ra<tspan letter-spacing="-.01em" x="30.18" y="0">r</tspan><tspan x="40.02" y="0">e</tspan></text><circle cx="990.23" cy="1073.81" fill="#43779e" r="39.04"/><g stroke-miterlimit="10"><path d="m972.45 1064.48h3.69v4.41h-3.69z" fill="#f7f8f9" stroke="#f7f8f9" stroke-width=".49" transform="matrix(.76187756 -.64772107 .64772107 .76187756 -458.9 884.97)"/><path d="m969.95 1064.27 2.76 3.24" fill="#f7f8f9" stroke="#f7f8f9" stroke-width=".49"/><path d="m970.64 1063.69 2.75 3.24" fill="#f7f8f9" stroke="#f7f8f9" stroke-width=".49"/><path d="m971.32 1063.1 2.76 3.25" fill="#f7f8f9" stroke="#f7f8f9" stroke-width=".49"/><path d="m972 1062.52 2.76 3.25" fill="#f7f8f9" stroke="#f7f8f9" stroke-width=".49"/><path d="m972.69 1061.94 2.76 3.25" fill="#f7f8f9" stroke="#f7f8f9" stroke-width=".49"/><path d="m969.88 1064.33 2.88-2.45" fill="#f7f8f9" stroke="#f7f8f9" stroke-width=".49"/><path d="m987.25 1054.73h5.96v7.12h-5.96z" fill="#f7f8f9" stroke="#f7f8f9" stroke-width=".45"/><path d="m987.41 1050.76v6.88" fill="#f7f8f9" stroke="#f7f8f9" stroke-width=".45"/><path d="m988.13 1050.76v6.88" fill="#f7f8f9" stroke="#f7f8f9" stroke-width=".45"/><path d="m988.86 1050.76v6.88" fill="#f7f8f9" stroke="#f7f8f9" stroke-width=".45"/><path d="m989.58 1050.76v6.88" fill="#f7f8f9" stroke="#f7f8f9" stroke-width=".45"/><path d="m990.31 1050.76v6.88" fill="#f7f8f9" stroke="#f7f8f9" stroke-width=".45"/><path d="m991.03 1050.76v6.88" fill="#f7f8f9" stroke="#f7f8f9" stroke-width=".45"/><path d="m991.76 1050.76v6.88" fill="#f7f8f9" stroke="#f7f8f9" stroke-width=".45"/><path d="m992.48 1050.76v6.88" fill="#f7f8f9" stroke="#f7f8f9" stroke-width=".45"/><path d="m993.21 1050.76v6.88" fill="#f7f8f9" stroke="#f7f8f9" stroke-width=".45"/><path d="m990.23 1060.76a9 9 0 1 1 9-9 9 9 0 0 1 -9 9zm7.11-9a6.79 6.79 0 1 0 -6.79 6.78 6.78 6.78 0 0 0 6.79-6.81z" fill="#f7f8f9" stroke="#f7f8f9" stroke-width=".45"/><path d="m987.25 1050.76h6.11" fill="#f7f8f9" stroke="#f7f8f9" stroke-width=".45"/><circle cx="990.23" cy="1082.91" fill="#f7f8f9" r="22.04" stroke="#43779e" stroke-width=".4"/><circle cx="990.23" cy="1082.91" fill="#43779e" r="15.97" stroke="#43779e" stroke-width=".8"/><path d="m990.23 1067.59v2.63" fill="none" stroke="#fff" stroke-width=".8"/><path d="m982.52 1069.6 1.32 2.28" fill="none" stroke="#fff" stroke-width=".8"/><path d="m976.85 1075.2 2.28 1.32" fill="none" stroke="#fff" stroke-width=".8"/><path d="m974.74 1082.89h2.63" fill="none" stroke="#fff" stroke-width=".8"/><path d="m976.76 1090.6 2.28-1.32" fill="none" stroke="#fff" stroke-width=".8"/><path d="m982.36 1096.27 1.32-2.28" fill="none" stroke="#fff" stroke-width=".8"/><path d="m990.04 1098.38v-2.64" fill="none" stroke="#fff" stroke-width=".8"/><path d="m997.75 1096.36-1.31-2.28" fill="none" stroke="#fff" stroke-width=".8"/><path d="m1003.42 1090.76-2.28-1.32" fill="none" stroke="#fff" stroke-width=".8"/><path d="m1005.53 1083.08h-2.63" fill="none" stroke="#fff" stroke-width=".8"/><path d="m1003.52 1075.36-2.28 1.32" fill="none" stroke="#fff" stroke-width=".8"/><path d="m997.92 1069.7-1.32 2.28" fill="none" stroke="#fff" stroke-width=".8"/></g><circle cx="990.14" cy="1082.98" fill="#fff" r="1.37"/><circle cx="990.14" cy="1082.98" fill="#43779e" r=".91"/><path d="m990.14 1081.87 1.66-12.86" fill="#fff"/><path d="m989.35 1081.77 2.45-12.76-.87 12.96z" fill="#fff"/><text fill="#fff" font-family="SanFranciscoDisplay-Bold, San Francisco Display" font-size="26.03" font-weight="700" transform="translate(799.78 1155.16)"><tspan letter-spacing="0em">L</tspan><tspan x="12.96" y="0">eg Roa</tspan><tspan letter-spacing="0em" x="91.82" y="0">s</tspan><tspan letter-spacing="0em" x="104.88" y="0">t</tspan><tspan x="4.72" y="31.23">(Bone In)</tspan></text><circle cx="855.99" cy="1073.81" fill="#43779e" r="39.04"/><path d="m886.58 1053.5c.85-.54-1.84-2-2.79-1.8-.54.1-1.16 1.27-1.6 1.64-2.44 2.09-10 6.35-10.33 7s1 3 1.68 2.49c1.31-.83 11.94-8.64 13.04-9.33z" fill="#fff"/><path d="m870.9 1057.56c-.83 0-2.21 1.18-3 1.49a45.36 45.36 0 0 1 -5.36 1.63 54.44 54.44 0 0 1 -6.72.88c-1.71.08-5.13-.31-6.85-.27a56.68 56.68 0 0 0 -6.24.54 25.67 25.67 0 0 0 -3.73 1.09 22.21 22.21 0 0 0 -2.3.78c-.37.23-1.26.69-1.66.88a17.31 17.31 0 0 1 -2.55.92 11.14 11.14 0 0 0 -2.44 1.22c-.47.31-1.62.9-2.07 1.25s-1.14 1.14-1.43 1.44a5.64 5.64 0 0 0 -1.25 2.19 4.47 4.47 0 0 0 .13 2.24c.49 1.06 2.41 2.52 3.33 3.26 1.13.91 2.13 3.82 3.05 5a17.81 17.81 0 0 0 2.71 2.57c.42.29 1.44.57 1.83.89.65.51 1.37 2.09 2 2.57s1.94.48 2.44.89c.93.75 2 3 3 3.65a15.72 15.72 0 0 0 1.61.62c.76.35 2 1.88 2.73 2.24a4.09 4.09 0 0 0 2.29.4 9.68 9.68 0 0 0 3.4-2.37c.6-.65 1.44-1.92 2-2.62.78-1 2.69-3 3.43-4 .36-.49 1-1.44 1.39-1.89.69-.77 2.44-1.77 3.16-2.52 1.4-1.45 3-5.25 4.14-6.91 1-1.49 3.24-4.33 4.41-5.7 1-1.13 3.16-3.13 4-4.34.58-.86 1.19-2.91 1.83-3.73v-.46l.37-1.45a4.81 4.81 0 0 0 -.42-1.76c-1-1.18-4.94-.49-7.23-.62z" fill="#b7d5ed"/><path d="m836.7 1063.68c1-.43 3.28-1.3 4.36-1.59a48.23 48.23 0 0 1 5.37-.78c1.25-.14 4.17-.17 5.43-.15s3.87.3 5 .27 2.66-.34 4.15-.53c1.16-.16 2.2-.48 3-.66s2.22-.66 3.44-1.07c.64-.22-1.76 1.24-2.4 1.48a35.69 35.69 0 0 1 -5.7 1.31c-1.65.23-5 .25-6.66.3-1 0-2.91 0-3.88.07a41.27 41.27 0 0 0 -4.68 1c-.84.23-2.45.9-3.29 1.1-1.3.3-4.09.61-5.38.93-.25.07-5.65 1.53-5.44 1.39a58.26 58.26 0 0 1 6.68-3.07z" fill="#fff"/><path d="m825.32 1073.36a5.56 5.56 0 0 1 1-.83 4.61 4.61 0 0 1 1.25-.37 8.93 8.93 0 0 1 3.26.2c.34.12 1 .45 1.31.61s.58.27.77.38c.39.21.83.36 1.19.53a16.67 16.67 0 0 1 2.09.86c1.26.91 3 3.52 4 4.75 1.09 1.4 3.17 4.28 4.14 5.76a54.41 54.41 0 0 1 3 5.43c0 .27 1.53 1.17 1.56 1.76a1.15 1.15 0 0 1 -.68.82c-1.93.4-4.85-1-6.45-2.2-.28-.2-1.72-1.33-2-1.51a18.09 18.09 0 0 1 -1.59-1.45l-2.51-2.18c-.72-.63-2.07-1.66-2.78-2.3a21 21 0 0 1 -2.51-3.25c-.46-.7-1.09-2.28-1.63-2.92s-1.86-1.39-2.37-2a9.21 9.21 0 0 1 -1.05-2.09z" fill="#43779e"/><path d="m848.31 1093.26c-1.93.4-4.85-1-6.45-2.2-.28-.2-1.72-1.33-2-1.51a18.09 18.09 0 0 1 -1.59-1.45l-2.51-2.18c-.72-.63-2.07-1.66-2.78-2.3a21 21 0 0 1 -2.51-3.25c-.46-.7-1.09-2.28-1.63-2.92s-1.86-1.39-2.37-2a11.72 11.72 0 0 1 -1.15-2.12 3.54 3.54 0 0 1 .9-2.13" fill="none" stroke="#fff" stroke-linecap="round" stroke-miterlimit="10" stroke-width="1.3"/><path d="m869.74 1060c-.33.57-.12 2-.2 2.64a13.7 13.7 0 0 1 -.61 3.33c-.23.44-.95 1-1.16 1.62a2.08 2.08 0 0 0 .21 1.77c.11.12.5.39.61.27.9-1 2.48-2.54 3.87-3.93a17.48 17.48 0 0 0 1.3-1.55 9.61 9.61 0 0 0 1.07-2.8c.28-1.1-.86-1.41-1.36-1.56a7.57 7.57 0 0 0 -2.85-.4 1.76 1.76 0 0 0 -.88.61z" fill="#43779e" opacity=".35"/><path d="m836.71 1080.14c-.43-.08-1.4-.29-1.72 0s-.25 1.59 0 2c.37.66 1.84 1.8 2.57 1.61.39-.11.66-1 .76-1.4a2.84 2.84 0 0 0 0-1.61c-.25-.32-1.19-.52-1.61-.6z" fill="#fff" stroke="#fff" stroke-miterlimit="10" stroke-width="1.24"/><path d="m841.91 1091c-.72-.48 1.47 1.48 2.05 2a18.94 18.94 0 0 0 3 2.13 10.8 10.8 0 0 0 2 .73 3.7 3.7 0 0 0 1.48 0c.35-.19 1.39-.49 1.18-.82a36.86 36.86 0 0 0 -2.46-2.75c-1-1.26-3-4-3.85-5.38s-2.59-4.09-3.52-5.41a50 50 0 0 0 -3.8-5 8.58 8.58 0 0 0 -2-1.86 38.38 38.38 0 0 0 -5.61-2.38 11.85 11.85 0 0 0 -2.85-.17 3.84 3.84 0 0 0 -1.57.52c-.21.21-.84.65-.75.79s.81-.41 1.12-.5a7.38 7.38 0 0 1 2.15-.15 30.51 30.51 0 0 1 4.68 1.17 12.13 12.13 0 0 1 2.37 1 13 13 0 0 1 1.87 2c.69.77 2.05 2.34 2.69 3.17.49.64 1.4 2 1.85 2.68.72 1.08 2.08 3.29 2.78 4.39.41.64 1.24 1.94 1.66 2.58a14.19 14.19 0 0 1 1.62 2.26c.08.24.24.84 0 1s-1.29-.1-1.71-.2a16.35 16.35 0 0 1 -2.14-.73 15.68 15.68 0 0 1 -2.24-1.07z" fill="#fff"/><path d="m839 1069.78c-.23 1.07 1.81 2.73 2.4 3.65 1.24 1.93 3.34 6.09 4.91 7.76 1.12 1.2 5.09 5.68 5.48 5.71.56 0 1.14-1.6 1.14-1.94a81.46 81.46 0 0 1 5.25-9.93 18.69 18.69 0 0 1 2.71-2.62c.31-.29 3.44-1.32 3.34-2.06-.25-1.85-5.2-1.74-7.19-1.8-2.49-.07-7.59-.14-10.16-.22a26.67 26.67 0 0 0 -6.62.65c-.41.11-1.26.44-1.26.8z" fill="#43779e" opacity=".35"/><path d="m872.91 1059.59a5.94 5.94 0 0 1 2 .65 1.74 1.74 0 0 1 .51 1.47 2.73 2.73 0 0 1 -.37 1.35 2.22 2.22 0 0 1 -.59.63 7.08 7.08 0 0 0 -1.13 1.07 9.52 9.52 0 0 0 1.32-2.66 2.44 2.44 0 0 0 -.43-1.53c-.73-.72-3.14-1.13-1.31-.98z" fill="#fff"/><path d="m835.52 1080.5a2.44 2.44 0 0 1 1.34 0 2.24 2.24 0 0 1 1 .67c.28.47.59 1.83.17 2.18-.26.22-1-.19-1.34-.34-.55-.25-1.9-.74-2-1.34-.07-.35.51-1 .83-1.17z" fill="#43779e"/><path d="m884.35 1052.15c-.18 0-.64 0-.68.2s.55.61.78.73a3.66 3.66 0 0 0 .73.16c.19 0 .57.25.73.16a.49.49 0 0 0 .11-.42c-.14-.33-.88-.6-1.2-.73a1.52 1.52 0 0 0 -.47-.1z" fill="#43779e"/><path d="m781.24 1296.89v-52a15.62 15.62 0 0 1 15.62-15.62h369.57a15.62 15.62 0 0 1 15.62 15.62v52z" fill="#fff" opacity=".15" stroke="#fff" stroke-miterlimit="10" stroke-width="1.3"/><rect fill="#fff" height="270.89" opacity=".15" rx="15.62" width="400.81" x="781.24" y="1229.31"/><text fill="#f0f1f1" font-family="SanFranciscoText-Medium, San Francisco Text" font-size="44.24" letter-spacing="0em" transform="translate(802.06 1278.46)">M<tspan letter-spacing="-.01em" x="35.61" y="0">ini Roa</tspan><tspan letter-spacing="-.01em" x="171.83" y="0">s</tspan><tspan letter-spacing="-.01em" x="194.01" y="0">t</tspan></text><text fill="#fff" font-family="SanFranciscoDisplay-Bold, San Francisco Display" font-size="26.03" font-weight="700" transform="translate(1103.6 1441.9)">1<tspan letter-spacing="-.01em" x="10.76" y="0">K</tspan><tspan letter-spacing="0em" x="26.74" y="0">g</tspan></text><text fill="#fff" font-family="SanFranciscoDisplay-Bold, San Francisco Display" font-size="26.03" font-weight="700" transform="translate(963.72 1441.9)">Ra<tspan letter-spacing="-.01em" x="30.18" y="0">r</tspan><tspan x="40.02" y="0">e</tspan></text><text fill="#fff" font-family="SanFranciscoDisplay-Bold, San Francisco Display" font-size="26.03" font-weight="700" transform="translate(799.78 1441.9)"><tspan letter-spacing="0em">L</tspan><tspan x="12.96" y="0">eg Roa</tspan><tspan letter-spacing="0em" x="91.82" y="0">s</tspan><tspan letter-spacing="0em" x="104.88" y="0">t</tspan><tspan x="4.72" y="31.23">(Bone In)</tspan></text><text fill="#fff" font-family="SanFranciscoDisplay-Bold, San Francisco Display" font-size="26.03" font-weight="700" transform="translate(1103.6 1442.21)">1<tspan letter-spacing="-.01em" x="10.76" y="0">K</tspan><tspan letter-spacing="0em" x="26.74" y="0">g</tspan></text><text fill="#fff" font-family="SanFranciscoDisplay-Bold, San Francisco Display" font-size="26.03" font-weight="700" transform="translate(963.72 1442.21)">Ra<tspan letter-spacing="-.01em" x="30.18" y="0">r</tspan><tspan x="40.02" y="0">e</tspan></text><text fill="#fff" font-family="SanFranciscoDisplay-Bold, San Francisco Display" font-size="26.03" font-weight="700" transform="translate(799.78 1442.21)"><tspan letter-spacing="0em">L</tspan><tspan x="12.96" y="0">eg Roa</tspan><tspan letter-spacing="0em" x="91.82" y="0">s</tspan><tspan letter-spacing="0em" x="104.88" y="0">t</tspan><tspan x="4.72" y="31.23">(Bone In)</tspan></text><circle cx="1124.47" cy="1361.59" fill="#474747" r="39.04"/><path d="m1145 1336.27-20.52.46-20.51-.46c0 3-.53 9.87 1.33 11.89 2.54 2.76 13.72 1.43 13.72 1.43v3.17l5.46-1.43 5.46 1.43v-3.17s11.18 1.33 13.72-1.43c1.85-2.02 1.34-8.89 1.34-11.89z" fill="#f7f8f9" stroke="#f7f8f9" stroke-miterlimit="10" stroke-width=".49"/><path d="m1124 1387.11s16.2.72 19.39-3c2.09-2.43.77-9.72 0-12.84-.88-3.56-4.05-10.59-6.82-13-3.65-3.17-4.61-3.48-12.14-4.75-5.91 1-8.44 1.58-12.09 4.75-2.77 2.41-5.94 9.44-6.82 13-.76 3.12-2.09 10.41 0 12.84 3.2 3.73 19.39 3 19.39 3" fill="#f7f8f9" stroke="#f7f8f9" stroke-miterlimit="10" stroke-width=".49"/><ellipse cx="1124.47" cy="1371.63" fill="#474747" rx="12.13" ry="12.41"/><path d="m1136.18 1360.54s2.87 4.63 3.85 6.68c.46 1 1.27 2.91 1.83 4.41a23 23 0 0 1 .81 5.52 43.31 43.31 0 0 1 -.57 5.57l-1.58-.78s.25-2.15.32-2.57a20.25 20.25 0 0 0 0-5.16 24.93 24.93 0 0 0 -1.21-4.56c-.86-2.26-3.45-9.11-3.45-9.11z" fill="#474747"/><circle cx="1124.46" cy="1372.14" fill="#fff" r="1.71"/><circle cx="1124.46" cy="1372.14" fill="#474747" r="1.14"/><path d="m1124.46 1370.74v-9.53" fill="#fff"/><path d="m1123.8 1370.74.66-9.53.65 9.53z" fill="#fff"/><path d="m1114.18 1372.14h3.98" fill="none" stroke="#fff" stroke-miterlimit="10" stroke-width="1.31"/><path d="m1130.79 1372.14h3.97" fill="none" stroke="#fff" stroke-miterlimit="10" stroke-width="1.31"/><path d="m1124.46 1378.44v3.98" fill="none" stroke="#fff" stroke-miterlimit="10" stroke-width="1.31"/><path d="m1118.99 1366.67 1.84 1.84" fill="none" stroke="#fff" stroke-miterlimit="10" stroke-width=".66"/><path d="m1118.99 1377.61 1.84-1.85" fill="none" stroke="#fff" stroke-miterlimit="10" stroke-width=".66"/><path d="m1129.92 1377.61-1.84-1.85" fill="none" stroke="#fff" stroke-miterlimit="10" stroke-width=".66"/><path d="m1129.92 1366.67-1.84 1.84" fill="none" stroke="#fff" stroke-miterlimit="10" stroke-width=".66"/><path d="m1107.22 1376.68a14.26 14.26 0 0 0 -.91 3.09 6.08 6.08 0 0 0 .91 3 9.84 9.84 0 0 0 4 2 23 23 0 0 0 4 0s-2.63-1-3.39-1.25c-1-.34-2.88-.75-3.7-1.43a3.36 3.36 0 0 1 -.91-1.62 24.46 24.46 0 0 1 0-3.79z" fill="#474747"/><circle cx="990.23" cy="1361.59" fill="#474747" r="39.04"/><path d="m972.45 1352.26h3.69v4.41h-3.69z" fill="#f7f8f9" stroke="#f7f8f9" stroke-miterlimit="10" stroke-width=".49" transform="matrix(.76187756 -.64772107 .64772107 .76187756 -645.29 953.49)"/><path d="m969.95 1352.05 2.76 3.25" fill="#f7f8f9" stroke="#f7f8f9" stroke-miterlimit="10" stroke-width=".49"/><path d="m970.64 1351.47 2.75 3.25" fill="#f7f8f9" stroke="#f7f8f9" stroke-miterlimit="10" stroke-width=".49"/><path d="m971.32 1350.89 2.76 3.24" fill="#f7f8f9" stroke="#f7f8f9" stroke-miterlimit="10" stroke-width=".49"/><path d="m972 1350.31 2.76 3.24" fill="#f7f8f9" stroke="#f7f8f9" stroke-miterlimit="10" stroke-width=".49"/><path d="m972.69 1349.73 2.76 3.24" fill="#f7f8f9" stroke="#f7f8f9" stroke-miterlimit="10" stroke-width=".49"/><path d="m969.88 1352.12 2.88-2.46" fill="#f7f8f9" stroke="#f7f8f9" stroke-miterlimit="10" stroke-width=".49"/><path d="m987.25 1342.51h5.96v7.12h-5.96z" fill="#f7f8f9" stroke="#f7f8f9" stroke-miterlimit="10" stroke-width=".45"/><path d="m987.41 1338.55v6.88" fill="#f7f8f9" stroke="#f7f8f9" stroke-miterlimit="10" stroke-width=".45"/><path d="m988.13 1338.55v6.88" fill="#f7f8f9" stroke="#f7f8f9" stroke-miterlimit="10" stroke-width=".45"/><path d="m988.86 1338.55v6.88" fill="#f7f8f9" stroke="#f7f8f9" stroke-miterlimit="10" stroke-width=".45"/><path d="m989.58 1338.55v6.88" fill="#f7f8f9" stroke="#f7f8f9" stroke-miterlimit="10" stroke-width=".45"/><path d="m990.31 1338.55v6.88" fill="#f7f8f9" stroke="#f7f8f9" stroke-miterlimit="10" stroke-width=".45"/><path d="m991.03 1338.55v6.88" fill="#f7f8f9" stroke="#f7f8f9" stroke-miterlimit="10" stroke-width=".45"/><path d="m991.76 1338.55v6.88" fill="#f7f8f9" stroke="#f7f8f9" stroke-miterlimit="10" stroke-width=".45"/><path d="m992.48 1338.55v6.88" fill="#f7f8f9" stroke="#f7f8f9" stroke-miterlimit="10" stroke-width=".45"/><path d="m993.21 1338.55v6.88" fill="#f7f8f9" stroke="#f7f8f9" stroke-miterlimit="10" stroke-width=".45"/><path d="m990.23 1348.55a9 9 0 1 1 9-9 9 9 0 0 1 -9 9zm7.11-9a6.79 6.79 0 1 0 -6.79 6.78 6.79 6.79 0 0 0 6.79-6.81z" fill="#f7f8f9" stroke="#f7f8f9" stroke-miterlimit="10" stroke-width=".45"/><path d="m987.25 1338.55h6.11" fill="#f7f8f9" stroke="#f7f8f9" stroke-miterlimit="10" stroke-width=".45"/><circle cx="990.23" cy="1370.69" fill="#f7f8f9" r="22.04" stroke="#474747" stroke-miterlimit="10" stroke-width=".4"/><circle cx="990.23" cy="1370.69" fill="#474747" r="15.97"/><path d="m990.23 1355.37v2.64" fill="none" stroke="#fff" stroke-miterlimit="10" stroke-width=".8"/><path d="m982.52 1357.39 1.32 2.28" fill="none" stroke="#fff" stroke-miterlimit="10" stroke-width=".8"/><path d="m976.85 1362.99 2.28 1.32" fill="none" stroke="#fff" stroke-miterlimit="10" stroke-width=".8"/><path d="m974.74 1370.67h2.63" fill="none" stroke="#fff" stroke-miterlimit="10" stroke-width=".8"/><path d="m976.76 1378.39 2.28-1.32" fill="none" stroke="#fff" stroke-miterlimit="10" stroke-width=".8"/><path d="m982.36 1384.05 1.32-2.28" fill="none" stroke="#fff" stroke-miterlimit="10" stroke-width=".8"/><path d="m990.04 1386.16v-2.63" fill="none" stroke="#fff" stroke-miterlimit="10" stroke-width=".8"/><path d="m997.75 1384.15-1.31-2.28" fill="none" stroke="#fff" stroke-miterlimit="10" stroke-width=".8"/><path d="m1003.42 1378.55-2.28-1.32" fill="none" stroke="#fff" stroke-miterlimit="10" stroke-width=".8"/><path d="m1005.53 1370.86h-2.63" fill="none" stroke="#fff" stroke-miterlimit="10" stroke-width=".8"/><path d="m1003.52 1363.15-2.28 1.32" fill="none" stroke="#fff" stroke-miterlimit="10" stroke-width=".8"/><path d="m997.92 1357.48-1.32 2.28" fill="none" stroke="#fff" stroke-miterlimit="10" stroke-width=".8"/><circle cx="990.14" cy="1370.77" fill="#fff" r="1.37"/><circle cx="990.14" cy="1370.77" fill="#474747" r=".91"/><path d="m990.14 1369.65 1.66-12.85" fill="#fff"/><path d="m989.35 1369.55 2.45-12.75-.87 12.96z" fill="#fff"/><circle cx="855.99" cy="1361.59" fill="#474747" r="39.04"/><path d="m886.58 1341.29c.85-.54-1.84-2-2.79-1.8-.54.1-1.16 1.26-1.6 1.64-2.44 2.09-10 6.35-10.33 7s1 2.95 1.68 2.49c1.31-.83 11.94-8.62 13.04-9.33z" fill="#fff"/><path d="m870.9 1345.35c-.83 0-2.21 1.18-3 1.49a45.36 45.36 0 0 1 -5.36 1.63 56.42 56.42 0 0 1 -6.72.88c-1.71.08-5.13-.31-6.85-.27a52.19 52.19 0 0 0 -6.24.54 25.63 25.63 0 0 0 -3.73 1.08 20.11 20.11 0 0 0 -2.3.79c-.37.23-1.26.69-1.66.88a18.42 18.42 0 0 1 -2.55.91 11.14 11.14 0 0 0 -2.44 1.22c-.47.32-1.62.91-2.07 1.26s-1.14 1.14-1.43 1.43a5.68 5.68 0 0 0 -1.25 2.2 4.44 4.44 0 0 0 .13 2.23c.49 1.06 2.41 2.52 3.33 3.26 1.13.91 2.13 3.82 3.05 4.95a17.4 17.4 0 0 0 2.71 2.58c.42.29 1.44.56 1.83.88.65.52 1.37 2.1 2 2.58s1.94.47 2.44.88c.93.76 2 3 3 3.66a15.65 15.65 0 0 0 1.61.61c.76.35 2 1.89 2.73 2.25a4.09 4.09 0 0 0 2.29.4 10 10 0 0 0 3.4-2.37c.6-.65 1.44-1.92 2-2.62.78-1 2.69-3 3.43-4 .36-.49 1-1.45 1.39-1.9.69-.76 2.44-1.77 3.16-2.51 1.4-1.45 3-5.25 4.14-6.92 1-1.49 3.24-4.32 4.41-5.7 1-1.12 3.16-3.12 4-4.34.58-.86 1.19-2.91 1.83-3.73v-.45l.37-1.45a4.77 4.77 0 0 0 -.42-1.76c-1-1.17-4.94-.45-7.23-.57z" fill="#eaeaea"/><path d="m836.7 1351.46c1-.42 3.28-1.3 4.36-1.58a46 46 0 0 1 5.37-.78c1.25-.14 4.17-.18 5.43-.15s3.87.29 5 .27 2.66-.34 4.15-.54a26.85 26.85 0 0 0 3-.66c.9-.21 2.22-.65 3.44-1.07.64-.22-1.76 1.25-2.4 1.48a35.71 35.71 0 0 1 -5.7 1.32c-1.65.23-5 .24-6.66.29-1 0-2.91 0-3.88.08a41.27 41.27 0 0 0 -4.68 1c-.84.22-2.45.9-3.29 1.09-1.3.31-4.09.61-5.38.94-.25.06-5.65 1.53-5.44 1.38a58.26 58.26 0 0 1 6.68-3.07z" fill="#fff"/><path d="m825.32 1361.14a6 6 0 0 1 1-.83 5 5 0 0 1 1.25-.36 8.72 8.72 0 0 1 3.26.2c.34.11 1 .45 1.31.6s.58.27.77.38c.39.22.83.37 1.19.54a16.62 16.62 0 0 1 2.09.85c1.26.91 3 3.53 4 4.75 1.09 1.4 3.17 4.28 4.14 5.77a53.39 53.39 0 0 1 3 5.42c0 .28 1.53 1.18 1.56 1.77a1.13 1.13 0 0 1 -.68.81c-1.93.41-4.85-1-6.45-2.19-.28-.2-1.72-1.34-2-1.52a18 18 0 0 1 -1.59-1.44l-2.51-2.19c-.72-.62-2.07-1.66-2.78-2.29a21.57 21.57 0 0 1 -2.51-3.26c-.46-.69-1.09-2.27-1.63-2.91s-1.86-1.39-2.37-2a9.23 9.23 0 0 1 -1.05-2.1z" fill="#474747"/><path d="m848.31 1381c-1.93.41-4.85-1-6.45-2.19-.28-.2-1.72-1.34-2-1.52a18 18 0 0 1 -1.59-1.44l-2.51-2.19c-.72-.62-2.07-1.66-2.78-2.29a21.57 21.57 0 0 1 -2.51-3.26c-.46-.69-1.09-2.27-1.63-2.91s-1.86-1.39-2.37-2a11.73 11.73 0 0 1 -1.15-2.13 3.57 3.57 0 0 1 .9-2.13" fill="none" stroke="#fff" stroke-linecap="round" stroke-miterlimit="10" stroke-width="1.3"/><path d="m869.74 1347.82c-.33.58-.12 2-.2 2.65a13.53 13.53 0 0 1 -.61 3.32c-.23.45-.95 1-1.16 1.63a2.06 2.06 0 0 0 .21 1.76c.11.13.5.4.61.27.9-1 2.48-2.53 3.87-3.92a19 19 0 0 0 1.3-1.55 9.72 9.72 0 0 0 1.07-2.8c.28-1.1-.86-1.41-1.36-1.56a7.58 7.58 0 0 0 -2.85-.41 1.83 1.83 0 0 0 -.88.61z" fill="#474747" opacity=".35"/><path d="m836.71 1367.92c-.43-.08-1.4-.29-1.72 0s-.25 1.6 0 2c.37.67 1.84 1.81 2.57 1.61.39-.1.66-1 .76-1.39a2.84 2.84 0 0 0 0-1.61c-.25-.32-1.19-.53-1.61-.61z" fill="#fff" stroke="#fff" stroke-miterlimit="10" stroke-width="1.24"/><path d="m841.91 1378.8c-.72-.49 1.47 1.48 2.05 2a17.76 17.76 0 0 0 3 2.13 10.8 10.8 0 0 0 2 .73 3.7 3.7 0 0 0 1.48 0c.35-.18 1.39-.49 1.18-.82a36.67 36.67 0 0 0 -2.46-2.74c-1-1.27-3-4-3.85-5.38s-2.59-4.1-3.52-5.42a51 51 0 0 0 -3.8-5 8.85 8.85 0 0 0 -2-1.87 39.45 39.45 0 0 0 -5.61-2.37 12.39 12.39 0 0 0 -2.85-.18 3.71 3.71 0 0 0 -1.57.53c-.21.21-.84.64-.75.78s.81-.41 1.12-.5a8.15 8.15 0 0 1 2.15-.15 29.42 29.42 0 0 1 4.68 1.18 12.13 12.13 0 0 1 2.37 1 12.93 12.93 0 0 1 1.87 2c.69.78 2.05 2.35 2.69 3.17.49.65 1.4 2 1.85 2.68.72 1.09 2.08 3.3 2.78 4.39.41.65 1.24 1.94 1.66 2.59a14.1 14.1 0 0 1 1.46 2.24c.08.24.24.85 0 1s-1.29-.1-1.71-.19a18 18 0 0 1 -2.14-.73 16.81 16.81 0 0 1 -2.08-1.07z" fill="#fff"/><path d="m839 1357.57c-.23 1.06 1.81 2.73 2.4 3.65 1.24 1.93 3.34 6.08 4.91 7.76 1.12 1.2 5.09 5.68 5.48 5.71.56 0 1.14-1.6 1.14-1.94a80 80 0 0 1 5.25-9.93 18.34 18.34 0 0 1 2.71-2.63c.31-.28 3.44-1.32 3.34-2-.25-1.86-5.2-1.74-7.19-1.8-2.49-.07-7.59-.14-10.16-.23a27.16 27.16 0 0 0 -6.62.66c-.41.06-1.26.38-1.26.75z" fill="#474747" opacity=".35"/><path d="m872.91 1347.38a6.16 6.16 0 0 1 2 .64 1.75 1.75 0 0 1 .51 1.48 2.7 2.7 0 0 1 -.37 1.34 2.09 2.09 0 0 1 -.59.63 7.64 7.64 0 0 0 -1.13 1.08 9.69 9.69 0 0 0 1.32-2.66 2.49 2.49 0 0 0 -.43-1.54c-.73-.72-3.14-1.13-1.31-.97z" fill="#fff"/><path d="m835.52 1368.29a2.35 2.35 0 0 1 1.34 0 2.17 2.17 0 0 1 1 .67c.28.47.59 1.82.17 2.17-.26.23-1-.19-1.34-.33-.55-.25-1.9-.75-2-1.34-.07-.36.51-1.01.83-1.17z" fill="#474747"/><path d="m884.35 1339.93c-.18 0-.64 0-.68.21s.55.61.78.73a3.66 3.66 0 0 0 .73.16c.19 0 .57.25.73.15a.49.49 0 0 0 .11-.42c-.14-.32-.88-.59-1.2-.72a1.53 1.53 0 0 0 -.47-.11z" fill="#474747"/></g><g stroke-miterlimit="10"><ellipse cx="1146.34" cy="977.15" fill="#fff" rx="24.67" ry="25.04" stroke="#fff" stroke-width="1.3"/><ellipse cx="1146.34" cy="1265.13" fill="#fff" rx="24.67" ry="25.04" stroke="#fff" stroke-width="1.3"/><path d="m1146.34 1252.77v26.03" fill="none" stroke="#000" stroke-width="5.21"/><path d="m1133.33 1265.78h26.02" fill="none" stroke="#000" stroke-width="5.21"/></g><path d="m1158.21 973.64-11.5 11.5-2.17 2.16a1.44 1.44 0 0 1 -1.08.45 1.47 1.47 0 0 1 -1.08-.45l-2.16-2.16-5.75-5.75a1.47 1.47 0 0 1 -.44-1.08 1.5 1.5 0 0 1 .44-1.08l2.16-2.16a1.5 1.5 0 0 1 1.08-.44 1.47 1.47 0 0 1 1.08.44l4.67 4.69 10.42-10.44a1.56 1.56 0 0 1 2.17 0l2.16 2.16a1.5 1.5 0 0 1 .44 1.08 1.47 1.47 0 0 1 -.44 1.08z"/><path d="m778.64 881.96h406.01v60.09h-406.01z"/><text fill="#adb3bf" font-family="SanFranciscoText-Regular, San Francisco Text" font-size="41.64" transform="translate(1077.62 926.36)">10:00</text><text fill="#43779e" font-family="SanFranciscoText-Regular, San Francisco Text" font-size="41.64" transform="translate(778.64 926.36)"><tspan letter-spacing="0em">F</tspan><tspan letter-spacing="-.01em" x="21.69" y="0">a</tspan><tspan letter-spacing="0em" x="43.82" y="0">v</tspan><tspan x="64.45" y="0">ouri</tspan><tspan letter-spacing="0em" x="140.11" y="0">t</tspan><tspan x="155.24" y="0">es</tspan></text></svg>