<svg xmlns="http://www.w3.org/2000/svg" xmlns:xlink="http://www.w3.org/1999/xlink" viewBox="0 0 1236.67 1500.2"><defs><style>.cls-1,.cls-108,.cls-109,.cls-110,.cls-117,.cls-29,.cls-51,.cls-61,.cls-63,.cls-68,.cls-69,.cls-7,.cls-76,.cls-77,.cls-92{fill:#fff;}.cls-103,.cls-107,.cls-118,.cls-15,.cls-16,.cls-2,.cls-26,.cls-33,.cls-34,.cls-37,.cls-38,.cls-43,.cls-45,.cls-46,.cls-47,.cls-48,.cls-83,.cls-84,.cls-96,.cls-97{fill:none;}.cls-3,.cls-35{fill:#44789f;}.cls-102,.cls-39,.cls-4,.cls-41,.cls-50,.cls-71,.cls-72,.cls-74,.cls-86,.cls-89{fill:#43779e;}.cls-5{clip-path:url(#clip-path);}.cls-6{fill:#3e6b93;}.cls-7{font-size:27.56px;font-family:HelveticaNeue, Helvetica Neue;}.cls-8{letter-spacing:-0.06em;}.cls-9{letter-spacing:-0.02em;}.cls-10{letter-spacing:-0.02em;}.cls-11{letter-spacing:0.01em;}.cls-12{letter-spacing:0em;}.cls-13{letter-spacing:0em;}.cls-100,.cls-101,.cls-114,.cls-14,.cls-95,.cls-99{fill:#f7f8f9;}.cls-15,.cls-16,.cls-33,.cls-34,.cls-48{stroke:#e6e6e6;}.cls-100,.cls-101,.cls-102,.cls-103,.cls-107,.cls-108,.cls-109,.cls-114,.cls-117,.cls-118,.cls-15,.cls-16,.cls-26,.cls-33,.cls-34,.cls-35,.cls-37,.cls-38,.cls-41,.cls-42,.cls-43,.cls-44,.cls-45,.cls-46,.cls-47,.cls-48,.cls-51,.cls-60,.cls-66,.cls-67,.cls-70,.cls-83,.cls-84,.cls-95,.cls-96,.cls-97,.cls-99{stroke-miterlimit:10;}.cls-15,.cls-16,.cls-48{stroke-width:4.59px;}.cls-16{stroke-dasharray:13.61 13.61;}.cls-17{fill:#dce0e5;}.cls-18{font-size:73.5px;letter-spacing:0.05em;}.cls-18,.cls-21{fill:#7d8689;}.cls-18,.cls-63,.cls-66{font-family:RobotoSlab-Light, Roboto Slab;}.cls-19{letter-spacing:0.18em;}.cls-20{letter-spacing:0.17em;}.cls-21,.cls-39,.cls-68{font-size:43.64px;}.cls-21,.cls-29,.cls-39,.cls-68{font-family:BlendaScript, Blenda Script;}.cls-22{letter-spacing:0em;}.cls-23{letter-spacing:0.03em;}.cls-24{letter-spacing:0.03em;}.cls-25{font-size:68.91px;fill:#ccd4d8;}.cls-25,.cls-28,.cls-69{font-family:FontAwesome, FontAwesome;}.cls-103,.cls-107,.cls-108,.cls-109,.cls-117,.cls-26,.cls-37,.cls-38,.cls-47,.cls-51,.cls-66,.cls-67,.cls-83,.cls-84,.cls-96,.cls-97{stroke:#fff;}.cls-26{stroke-width:3.45px;}.cls-27{fill:#b3c9d7;}.cls-28{font-size:63.17px;fill:#ad5359;}.cls-29{font-size:45.94px;}.cls-30{letter-spacing:0.04em;}.cls-31{letter-spacing:-0.04em;}.cls-32{letter-spacing:0.02em;}.cls-33,.cls-34{stroke-width:4.34px;}.cls-34{stroke-dasharray:12.75 12.75;}.cls-35{stroke:#44789f;}.cls-35,.cls-38{stroke-width:1.15px;}.cls-36{fill:url(#light-halftone);}.cls-37,.cls-60,.cls-67{stroke-width:2.3px;}.cls-40{letter-spacing:-0.02em;}.cls-101,.cls-102,.cls-41,.cls-42,.cls-43,.cls-44,.cls-45,.cls-46{stroke:#43779e;}.cls-41,.cls-45,.cls-47{stroke-width:1.87px;}.cls-42{fill:#264c74;stroke-width:0.97px;}.cls-43{stroke-width:2.02px;}.cls-44{stroke-width:0.93px;fill:url(#light-halftone_2);}.cls-46{stroke-width:1.97px;}.cls-48{stroke-dasharray:15.14 15.14;}.cls-49{fill:url(#light-halftone_2-3);}.cls-116,.cls-50{opacity:0.35;}.cls-51{stroke-width:3.13px;}.cls-52{letter-spacing:0.05em;}.cls-53{letter-spacing:-0.01em;}.cls-54{letter-spacing:0.04em;}.cls-55{letter-spacing:-0.01em;}.cls-56{letter-spacing:-0.02em;}.cls-57{letter-spacing:0em;}.cls-58,.cls-66,.cls-67{fill:#2d3135;}.cls-59,.cls-60{fill:#303030;}.cls-60{stroke:#3b3133;}.cls-61,.cls-63,.cls-66{font-size:21.82px;}.cls-61{font-family:RobotoSlab-Regular, Roboto Slab;}.cls-62{letter-spacing:0em;}.cls-64{letter-spacing:-0.02em;}.cls-65{letter-spacing:-0.01em;}.cls-66{stroke-width:1.14px;}.cls-69{font-size:29.86px;}.cls-70{stroke:#231f20;stroke-width:8.74px;}.cls-71,.cls-83,.cls-84{opacity:0.3;}.cls-72{opacity:0.5;}.cls-73,.cls-74{font-size:41.64px;font-family:SanFranciscoText-Regular, San Francisco Text;}.cls-73{fill:#adb3bf;}.cls-75{letter-spacing:-0.01em;}.cls-76,.cls-89{opacity:0.4;}.cls-77{font-size:78.08px;}.cls-77,.cls-92{font-family:SanFranciscoDisplay-Bold, San Francisco Display;font-weight:700;}.cls-78{letter-spacing:-0.04em;}.cls-79{letter-spacing:-0.01em;}.cls-80{letter-spacing:0em;}.cls-81{letter-spacing:0em;}.cls-82{letter-spacing:0em;}.cls-83{stroke-width:1.31px;}.cls-84{stroke-width:1.31px;}.cls-85{font-size:28.63px;fill:#9e9d9d;font-family:SanFranciscoDisplay-Regular, San Francisco Display;letter-spacing:0.04em;}.cls-111,.cls-86,.cls-90{font-size:44.24px;font-family:SanFranciscoText-Medium, San Francisco Text;}.cls-112,.cls-86,.cls-90{letter-spacing:-0.01em;}.cls-87{letter-spacing:-0.01em;}.cls-88{clip-path:url(#clip-path-2);}.cls-111,.cls-90{fill:#f0f1f1;}.cls-91{letter-spacing:-0.01em;}.cls-92{font-size:26.03px;}.cls-93{letter-spacing:-0.01em;}.cls-94{letter-spacing:0em;}.cls-100,.cls-95,.cls-99{stroke:#f7f8f9;}.cls-95{stroke-width:0.49px;}.cls-96{stroke-width:1.31px;}.cls-97{stroke-width:0.66px;}.cls-98{letter-spacing:-0.01em;}.cls-99{stroke-width:0.49px;}.cls-100{stroke-width:0.45px;}.cls-101,.cls-114{stroke-width:0.4px;}.cls-102,.cls-103{stroke-width:0.8px;}.cls-104{letter-spacing:0em;}.cls-105{letter-spacing:0em;}.cls-106{fill:#b7d5ed;}.cls-107{stroke-linecap:round;}.cls-107,.cls-109,.cls-117{stroke-width:1.3px;}.cls-108{stroke-width:1.24px;}.cls-109,.cls-110{opacity:0.15;}.cls-111{letter-spacing:0em;}.cls-113,.cls-116{fill:#474747;}.cls-114{stroke:#474747;}.cls-115{fill:#eaeaea;}.cls-118{stroke:#000;stroke-width:5.21px;}.cls-119{letter-spacing:0em;}.cls-120{letter-spacing:-0.01em;}</style><clipPath id="clip-path"><rect id="_Clipping_Path_" data-name="&lt;Clipping Path&gt;" class="cls-1" x="36.74" y="8.02" width="738.67" height="1314.03"/></clipPath><pattern id="light-halftone" data-name="light-halftone" width="3.22" height="3.22" patternTransform="translate(90.43 81.09) scale(1.83 1.83)" patternUnits="userSpaceOnUse" viewBox="0 0 3.22 3.22"><rect class="cls-2" width="3.22" height="3.22"/><rect class="cls-1" width="3.22" height="3.22"/><path class="cls-3" d="M.06.8H0V2.52H.06a.85.85,0,0,0,.85-.86A.86.86,0,0,0,.06.8Z"/><path class="cls-3" d="M1.55,2.3a.87.87,0,0,0-.86.86s0,0,0,.06H2.41V3.16A.86.86,0,0,0,1.55,2.3Z"/><path class="cls-3" d="M3.22.81H3.16a.86.86,0,0,0,0,1.72h.06Z"/><path class="cls-3" d="M.69.06a.86.86,0,0,0,.86.85A.85.85,0,0,0,2.41.06V0H.7S.69,0,.69.06Z"/></pattern><pattern id="light-halftone_2" data-name="light-halftone 2" width="3.22" height="3.22" patternTransform="translate(-0.74 30.43) scale(1.07 1.07)" patternUnits="userSpaceOnUse" viewBox="0 0 3.22 3.22"><rect class="cls-2" width="3.22" height="3.22"/><rect class="cls-1" width="3.22" height="3.22"/><path class="cls-4" d="M.06.8H0V2.52H.06a.85.85,0,0,0,.85-.86A.86.86,0,0,0,.06.8Z"/><path class="cls-4" d="M1.55,2.3a.87.87,0,0,0-.86.86s0,0,0,.06H2.41V3.16A.86.86,0,0,0,1.55,2.3Z"/><path class="cls-4" d="M3.22.81H3.16a.86.86,0,0,0,0,1.72h.06Z"/><path class="cls-4" d="M.69.06a.86.86,0,0,0,.86.85A.85.85,0,0,0,2.41.06V0H.7S.69,0,.69.06Z"/></pattern><pattern id="light-halftone_2-3" data-name="light-halftone 2" width="3.22" height="3.22" patternTransform="translate(54.96 104.24) scale(1.05 1.05)" patternUnits="userSpaceOnUse" viewBox="0 0 3.22 3.22"><rect class="cls-2" width="3.22" height="3.22"/><rect class="cls-1" width="3.22" height="3.22"/><path class="cls-4" d="M.06.8H0V2.52H.06a.85.85,0,0,0,.85-.86A.86.86,0,0,0,.06.8Z"/><path class="cls-4" d="M1.55,2.3a.87.87,0,0,0-.86.86s0,0,0,.06H2.41V3.16A.86.86,0,0,0,1.55,2.3Z"/><path class="cls-4" d="M3.22.81H3.16a.86.86,0,0,0,0,1.72h.06Z"/><path class="cls-4" d="M.69.06a.86.86,0,0,0,.86.85A.85.85,0,0,0,2.41.06V0H.7S.69,0,.69.06Z"/></pattern><clipPath id="clip-path-2"><rect class="cls-2" x="778.64" y="933.73" width="406.01" height="456.74"/></clipPath></defs><title>lamb_1</title><g id="Layer_2" data-name="Layer 2"><g id="Layer_1-2" data-name="Layer 1"><g id="_Group_" data-name="&lt;Group&gt;"><g id="_Clip_Group_2" data-name="&lt;Clip Group&gt;"><rect id="_Clipping_Path_2" data-name="&lt;Clipping Path&gt;" class="cls-1" x="36.74" y="8.02" width="738.67" height="1314.03"/><g class="cls-5"><rect id="_Path_" data-name="&lt;Path&gt;" class="cls-1" x="36.74" y="8.02" width="738.67" height="1314.03"/><g id="_Group_2" data-name="&lt;Group&gt;"><rect id="_Path_2" data-name="&lt;Path&gt;" class="cls-6" x="19.78" width="772.78" height="60.5"/><g id="_Group_3" data-name="&lt;Group&gt;"><text class="cls-7" transform="translate(349.35 42.68)"><tspan class="cls-8">1</tspan><tspan class="cls-9" x="13.62" y="0">0</tspan><tspan class="cls-10" x="28.44" y="0">:</tspan><tspan class="cls-11" x="35.57" y="0">0</tspan><tspan x="51.16" y="0">0 </tspan><tspan class="cls-12" x="74.15" y="0">A</tspan><tspan class="cls-13" x="91.91" y="0">M</tspan></text><circle id="_Path_3" data-name="&lt;Path&gt;" class="cls-1" cx="57.01" cy="33.49" r="5.74"/><circle id="_Path_4" data-name="&lt;Path&gt;" class="cls-1" cx="73.09" cy="33.49" r="5.74"/><circle id="_Path_5" data-name="&lt;Path&gt;" class="cls-1" cx="89.17" cy="33.49" r="5.74"/><circle id="_Path_6" data-name="&lt;Path&gt;" class="cls-1" cx="105.25" cy="33.49" r="5.74"/><g id="_Group_4" data-name="&lt;Group&gt;"><circle class="cls-1" cx="121.33" cy="33.49" r="5.74"/></g><g id="_Group_5" data-name="&lt;Group&gt;"><path class="cls-1" d="M754.76,21.43a1.15,1.15,0,0,1,1.15,1.15V42.11a1.15,1.15,0,0,1-1.15,1.15H707.67a1.16,1.16,0,0,1-1.15-1.15V22.58a1.16,1.16,0,0,1,1.15-1.15h47.09m0-.57H707.67A1.73,1.73,0,0,0,706,22.58V42.11a1.73,1.73,0,0,0,1.72,1.72h47.09a1.73,1.73,0,0,0,1.73-1.72V22.58a1.73,1.73,0,0,0-1.73-1.72Z"/></g><g id="_Group_6" data-name="&lt;Group&gt;"><rect class="cls-1" x="709.39" y="24.31" width="43.65" height="16.08" rx="0.55" ry="0.55"/></g><path id="_Path_7" data-name="&lt;Path&gt;" class="cls-1" d="M758.78,30.05v4.59a2.3,2.3,0,1,0,0-4.59Z"/></g><rect id="_Path_8" data-name="&lt;Path&gt;" class="cls-14" y="60.83" width="812.35" height="690.26"/><g id="_Group_7" data-name="&lt;Group&gt;"><line class="cls-15" x1="38.64" y1="747.3" x2="45.53" y2="747.3"/><line class="cls-16" x1="59.14" y1="747.3" x2="760.02" y2="747.3"/><line class="cls-15" x1="766.82" y1="747.3" x2="773.71" y2="747.3"/></g><rect id="_Path_9" data-name="&lt;Path&gt;" class="cls-17" x="28.6" y="1078.05" width="755.16" height="117.52"/><text class="cls-18" transform="translate(251.23 881.65)">01<tspan class="cls-19" x="79.18" y="0">:</tspan><tspan x="106.3" y="0">33</tspan><tspan class="cls-20" x="193.19" y="0">:</tspan><tspan x="219.87" y="0">09</tspan></text><text class="cls-21" transform="translate(277.79 939.74) scale(0.96 1)">hr</text><text class="cls-21" transform="translate(371.39 939.74) scale(0.96 1)">m<tspan class="cls-22" x="31.99" y="0">i</tspan><tspan x="43.73" y="0">n</tspan></text><text class="cls-21" transform="translate(480.5 939.74) scale(0.96 1)"><tspan class="cls-23">s</tspan><tspan class="cls-24" x="20.64" y="0">e</tspan><tspan x="37.53" y="0">c</tspan></text><text class="cls-25" transform="translate(136.84 878.02) scale(0.96 1)"></text><g id="_Group_8" data-name="&lt;Group&gt;"><rect id="_Path_10" data-name="&lt;Path&gt;" class="cls-17" x="116.16" y="980.42" width="580.02" height="29.86"/><line id="_Path_11" data-name="&lt;Path&gt;" class="cls-26" x1="506.67" y1="967.55" x2="506.67" y2="1044.5"/><line id="_Path_12" data-name="&lt;Path&gt;" class="cls-26" x1="586.5" y1="960.66" x2="586.5" y2="1037.61"/><rect id="_Path_13" data-name="&lt;Path&gt;" class="cls-27" x="117.49" y="980.99" width="37.16" height="28.71"/></g><text class="cls-28" transform="translate(623.73 878.84) scale(0.96 1)"></text><path id="_Path_14" data-name="&lt;Path&gt;" class="cls-4" d="M732.37,1167.78c0,5.27-7,9.54-15.61,9.54H95.59c-8.62,0-15.61-4.27-15.61-9.54V1107c0-5.27,7-9.54,15.61-9.54H716.76c8.62,0,15.61,4.27,15.61,9.54Z"/><text class="cls-29" transform="translate(246.79 1153.12) scale(0.96 1)">Add <tspan class="cls-30" x="89.17" y="0">t</tspan><tspan x="103.09" y="0">o </tspan><tspan class="cls-31" x="135.8" y="0">F</tspan><tspan x="163.68" y="0">avourit</tspan><tspan class="cls-32" x="295.02" y="0">e</tspan><tspan x="312.16" y="0">s</tspan></text><g id="_Group_9" data-name="&lt;Group&gt;"><path id="_Path_15" data-name="&lt;Path&gt;" class="cls-27" d="M450,469.76c0,5.9-4,10.68-8.89,10.68H93.78c-4.91,0-8.89-4.78-8.89-10.68V329.61c0-5.89,4-10.67,8.89-10.67H441.06c4.91,0,8.89,4.78,8.89,10.67Z"/><g id="_Group_10" data-name="&lt;Group&gt;"><line class="cls-33" x1="460.48" y1="399.69" x2="466.99" y2="399.69"/><line class="cls-34" x1="479.75" y1="399.69" x2="524.37" y2="399.69"/><line class="cls-33" x1="530.75" y1="399.69" x2="537.26" y2="399.69"/></g><g id="_Group_11" data-name="&lt;Group&gt;"><path id="_Path_16" data-name="&lt;Path&gt;" class="cls-27" d="M727.46,460.46c0,11-6.18,20-13.79,20H550c-7.61,0-13.78-8.95-13.78-20V338.91c0-11,6.17-20,13.78-20H713.67c7.61,0,13.79,8.94,13.79,20Z"/><g id="_Group_12" data-name="&lt;Group&gt;"><path id="_Path_17" data-name="&lt;Path&gt;" class="cls-35" d="M574.83,327.53c0,8.5-1.49,28,3.78,33.71,7.2,7.84,38.9,4,38.9,4v9l15.48-4V328.83"/><path id="_Path_18" data-name="&lt;Path&gt;" class="cls-35" d="M688.85,327.53c0,8.5,1.5,28-3.77,33.71-7.21,7.84-38.9,4-38.9,4v9l-15.49-4V328.83"/><path id="_Path_19" data-name="&lt;Path&gt;" class="cls-36" d="M630.49,471.69s45.93,2,55-8.54c5.92-6.91,2.18-27.57,0-36.4-2.49-10.11-11.48-30-19.33-36.86-10.34-9-13.07-9.89-34.42-13.49-16.74,2.93-23.93,4.5-34.27,13.49-7.85,6.83-16.84,26.75-19.33,36.86-2.18,8.83-5.92,29.49,0,36.4,9,10.56,55,8.54,55,8.54"/><ellipse id="_Path_20" data-name="&lt;Path&gt;" class="cls-3" cx="631.84" cy="427.78" rx="34.39" ry="35.19"/><path id="_Path_21" data-name="&lt;Path&gt;" class="cls-1" d="M665.05,396.34s8.12,13.13,10.91,19c1.29,2.69,3.59,8.25,5.17,12.49s2.19,12.64,2.29,15.65c.17,4.75-1.6,15.79-1.6,15.79l-4.47-2.2s.69-6.1.91-7.28c.71-3.81.52-10.8,0-14.64a70.58,70.58,0,0,0-3.45-12.92C672.36,415.76,665.05,396.34,665.05,396.34Z"/><circle id="_Path_22" data-name="&lt;Path&gt;" class="cls-1" cx="631.79" cy="429.22" r="4.86"/><circle id="_Path_23" data-name="&lt;Path&gt;" class="cls-3" cx="631.79" cy="429.22" r="3.23"/><g id="_Group_13" data-name="&lt;Group&gt;"><line class="cls-1" x1="631.79" y1="425.26" x2="631.79" y2="398.24"/><polygon class="cls-1" points="630.64 425.26 631.79 398.24 632.94 425.26 630.64 425.26"/></g><line id="_Path_24" data-name="&lt;Path&gt;" class="cls-37" x1="602.67" y1="429.22" x2="613.94" y2="429.22"/><line id="_Path_25" data-name="&lt;Path&gt;" class="cls-37" x1="649.75" y1="429.22" x2="661.02" y2="429.22"/><line id="_Path_26" data-name="&lt;Path&gt;" class="cls-37" x1="631.79" y1="447.11" x2="631.79" y2="458.38"/><line id="_Path_27" data-name="&lt;Path&gt;" class="cls-38" x1="616.29" y1="413.72" x2="621.52" y2="418.95"/><line id="_Path_28" data-name="&lt;Path&gt;" class="cls-38" x1="616.29" y1="444.73" x2="621.52" y2="439.5"/><line id="_Path_29" data-name="&lt;Path&gt;" class="cls-38" x1="647.3" y1="444.73" x2="642.07" y2="439.5"/><line id="_Path_30" data-name="&lt;Path&gt;" class="cls-38" x1="647.3" y1="413.72" x2="642.07" y2="418.95"/><path id="_Path_31" data-name="&lt;Path&gt;" class="cls-1" d="M582.93,442.12s-2.6,6.46-2.59,8.74,1.17,6.69,2.59,8.36c2.07,2.44,8.36,5,11.48,5.71,2.8.66,11.49,0,11.49,0s-7.45-2.8-9.62-3.54c-2.86-1-8.17-2.13-10.48-4.07a9.53,9.53,0,0,1-2.59-4.58C582.61,450.15,582.93,442.12,582.93,442.12Z"/></g></g><text class="cls-39" transform="translate(219.25 409.53) scale(0.96 1)">1<tspan class="cls-40" x="13.35" y="0">.</tspan><tspan x="24.57" y="0">17kg</tspan></text></g><g id="_Group_14" data-name="&lt;Group&gt;"><path id="_Path_32" data-name="&lt;Path&gt;" class="cls-27" d="M450.54,670c0,5.9-4,10.68-8.88,10.68H94.37c-4.91,0-8.89-4.78-8.89-10.68V529.83c0-5.89,4-10.67,8.89-10.67H441.66c4.9,0,8.88,4.78,8.88,10.67Z"/><g id="_Group_15" data-name="&lt;Group&gt;"><line class="cls-33" x1="461.07" y1="599.91" x2="467.59" y2="599.91"/><line class="cls-34" x1="480.34" y1="599.91" x2="524.97" y2="599.91"/><line class="cls-33" x1="531.34" y1="599.91" x2="537.85" y2="599.91"/></g><g id="_Group_16" data-name="&lt;Group&gt;"><path id="_Path_33" data-name="&lt;Path&gt;" class="cls-27" d="M726.86,660.81c0,11-6.17,20-13.78,20H549.42c-7.61,0-13.78-8.94-13.78-20V539.27c0-11,6.17-20,13.78-20H713.08c7.61,0,13.78,8.94,13.78,20Z"/><polygon class="cls-41" points="593.86 576.75 587.27 582.37 593.96 590.26 600.55 584.64 593.86 576.75"/><line class="cls-42" x1="583.25" y1="578.22" x2="589.72" y2="585.85"/><line class="cls-42" x1="585.19" y1="576.58" x2="591.65" y2="584.2"/><line class="cls-42" x1="586.93" y1="575.09" x2="593.4" y2="582.71"/><line class="cls-42" x1="588.68" y1="573.6" x2="595.15" y2="581.22"/><line class="cls-42" x1="590.42" y1="572.11" x2="596.89" y2="579.74"/><line class="cls-43" x1="582.87" y1="578.55" x2="590.77" y2="571.82"/><rect class="cls-41" x="624.26" y="555.41" width="13.97" height="16.73"/><ellipse class="cls-44" cx="631.25" cy="621.61" rx="51.66" ry="51.77"/><line class="cls-45" x1="624.26" y1="546.1" x2="624.26" y2="562.27"/><line class="cls-45" x1="628.03" y1="546.1" x2="628.03" y2="562.27"/><line class="cls-45" x1="631.43" y1="546.1" x2="631.43" y2="562.27"/><line class="cls-45" x1="634.84" y1="546.1" x2="634.84" y2="562.27"/><line class="cls-45" x1="638.24" y1="546.1" x2="638.24" y2="562.27"/><ellipse class="cls-41" cx="631.25" cy="621.61" rx="37.43" ry="37.51"/><path class="cls-41" d="M631.25,569.6a21.22,21.22,0,1,1,21.18-21.22A21.2,21.2,0,0,1,631.25,569.6Zm16.66-21.22A15.9,15.9,0,1,0,632,564.31,15.92,15.92,0,0,0,647.91,548.38Z"/><line class="cls-46" x1="623.23" y1="546.1" x2="639.27" y2="546.1"/><line class="cls-47" x1="631.25" y1="585.62" x2="631.25" y2="591.81"/><line class="cls-47" x1="613.18" y1="590.36" x2="616.26" y2="595.72"/><line class="cls-47" x1="599.89" y1="603.52" x2="605.24" y2="606.62"/><line class="cls-47" x1="594.94" y1="621.58" x2="601.12" y2="621.58"/><line class="cls-47" x1="599.67" y1="639.69" x2="605.02" y2="636.6"/><line class="cls-47" x1="612.8" y1="653.01" x2="615.89" y2="647.65"/><line class="cls-47" x1="630.82" y1="657.96" x2="630.82" y2="651.77"/><line class="cls-47" x1="648.89" y1="653.23" x2="645.8" y2="647.87"/><line class="cls-47" x1="662.18" y1="640.07" x2="656.83" y2="636.97"/><line class="cls-47" x1="667.13" y1="622.01" x2="660.95" y2="622.01"/><line class="cls-47" x1="662.4" y1="603.9" x2="657.05" y2="606.99"/><line class="cls-47" x1="649.27" y1="590.58" x2="646.18" y2="595.94"/><ellipse class="cls-1" cx="631.03" cy="621.79" rx="3.2" ry="3.21"/><ellipse class="cls-4" cx="631.03" cy="621.79" rx="2.12" ry="2.13"/><line class="cls-1" x1="631.03" y1="619.18" x2="634.92" y2="588.97"/><polygon class="cls-1" points="629.18 618.94 634.92 588.97 632.88 619.42 629.18 618.94"/></g><text class="cls-39" transform="translate(201.15 609.75) scale(0.96 1)">Medium</text></g><g id="_Group_17" data-name="&lt;Group&gt;"><g id="_Group_18" data-name="&lt;Group&gt;"><line class="cls-15" x1="450.83" y1="199.47" x2="457.72" y2="199.47"/><line class="cls-48" x1="472.86" y1="199.47" x2="525.83" y2="199.47"/><line class="cls-15" x1="533.4" y1="199.47" x2="540.29" y2="199.47"/></g><path id="_Path_34" data-name="&lt;Path&gt;" class="cls-27" d="M450.11,269.54c0,5.9-4,10.68-8.89,10.68H93.94c-4.91,0-8.89-4.78-8.89-10.68V129.39c0-5.9,4-10.68,8.89-10.68H441.22c4.91,0,8.89,4.78,8.89,10.68Z"/><g id="_Group_19" data-name="&lt;Group&gt;"><path id="_Path_35" data-name="&lt;Path&gt;" class="cls-27" d="M727.3,260.24c0,11-6.18,20-13.79,20H549.85c-7.61,0-13.78-9-13.78-20V138.69c0-11,6.17-20,13.78-20H713.51c7.61,0,13.79,9,13.79,20Z"/><g id="_Group_20" data-name="&lt;Group&gt;"><path id="_Path_36" data-name="&lt;Path&gt;" class="cls-1" d="M708.64,148.37c2.16-1.35-4.63-5-7-4.53-1.35.27-2.93,3.19-4,4.13-6.14,5.26-25,16-26,17.67s2.43,7.43,4.24,6.26C679.14,169.78,705.87,150.1,708.64,148.37Z"/><path id="_Path_37" data-name="&lt;Path&gt;" class="cls-49" d="M669.21,158.58c-2.1-.11-5.56,3-7.51,3.76a113.13,113.13,0,0,1-13.48,4.09,135.46,135.46,0,0,1-16.9,2.22c-4.31.2-12.92-.78-17.24-.68a135.38,135.38,0,0,0-15.7,1.37,61.37,61.37,0,0,0-9.38,2.73c-1.35.54-4.55,1.21-5.79,2-.93.58-3.17,1.74-4.17,2.21a43,43,0,0,1-6.43,2.3,28.2,28.2,0,0,0-6.14,3.07c-1.18.8-4.07,2.28-5.19,3.16-.82.64-2.88,2.87-3.61,3.61a14.48,14.48,0,0,0-3.15,5.52,11.19,11.19,0,0,0,.34,5.63c1.22,2.66,6.06,6.34,8.37,8.19,2.85,2.3,5.37,9.62,7.68,12.46a44.54,44.54,0,0,0,6.82,6.49c1,.72,3.61,1.42,4.61,2.22,1.61,1.29,3.44,5.27,5.12,6.48,1.33,1,4.88,1.19,6.14,2.22,2.34,1.9,5,7.6,7.54,9.2,1.13.7,2.86,1,4.07,1.55,1.89.88,5,4.74,6.86,5.65,1.51.72,4.14,1.41,5.77,1,2.53-.63,6.76-4.07,8.53-6,1.53-1.63,3.63-4.82,5-6.58,2-2.52,6.78-7.55,8.65-10.14.89-1.24,2.48-3.63,3.49-4.77,1.73-1.93,6.14-4.46,7.94-6.32C655,217.57,659,208,661.87,203.81c2.56-3.74,8.17-10.88,11.09-14.34,2.4-2.83,8-7.85,10.07-10.92,1.48-2.16,3-7.32,4.61-9.38l0-1.15.91-3.64s-.27-3.59-1-4.43C684.87,157.09,675,158.91,669.21,158.58Z"/><path id="_Path_38" data-name="&lt;Path&gt;" class="cls-1" d="M583.15,174c2.62-1.06,8.25-3.26,11-4,3.48-.93,9.92-1.57,13.5-2,3.16-.35,10.5-.43,13.67-.38,3,.05,9.73.75,12.71.69,2.64-.05,6.69-.86,10.43-1.35a69.33,69.33,0,0,0,7.55-1.66c2.28-.53,5.58-1.65,8.65-2.7,1.62-.55-4.42,3.15-6,3.73a91.46,91.46,0,0,1-14.36,3.32c-4.15.56-12.56.6-16.75.73-2.43.08-7.33-.08-9.75.19A105,105,0,0,0,602,173c-2.11.56-6.16,2.26-8.28,2.76-3.26.76-10.28,1.54-13.53,2.35-.64.16-14.23,3.85-13.69,3.48C569.75,179.33,581.64,174.58,583.15,174Z"/><path id="_Path_39" data-name="&lt;Path&gt;" class="cls-4" d="M554.54,198.33a13.89,13.89,0,0,1,2.63-2.09,11.77,11.77,0,0,1,3.15-.92,21.78,21.78,0,0,1,8.19.51c.87.28,2.47,1.13,3.3,1.52.51.24,1.46.68,1.93,1,1,.55,2.09.92,3,1.35,1.24.58,4.13,1.35,5.24,2.15,3.17,2.29,7.67,8.87,10.07,11.95,2.75,3.52,8,10.77,10.41,14.5,2.15,3.28,7.68,13,7.68,13.66s3.85,3,3.93,4.43a2.85,2.85,0,0,1-1.71,2c-4.85,1-12.21-2.62-16.24-5.52-.68-.49-4.31-3.36-5-3.8a44.24,44.24,0,0,1-4-3.65c-1.57-1.36-4.78-4.17-6.31-5.49-1.82-1.57-5.21-4.18-7-5.77s-4.89-6-6.31-8.19c-1.16-1.76-2.75-5.73-4.1-7.34s-4.69-3.49-6-4.95A23.41,23.41,0,0,1,554.54,198.33Z"/><path id="_Path_40" data-name="&lt;Path&gt;" class="cls-50" d="M666.29,164.82c-.83,1.44-.3,5-.52,6.65-.27,2.11-.58,6.47-1.53,8.36-.57,1.12-2.39,2.56-2.9,4.1s-.25,3.62.51,4.44c.28.31,1.26,1,1.54.68,2.26-2.58,6.24-6.38,9.74-9.88a44.71,44.71,0,0,0,3.27-3.9,24,24,0,0,0,2.69-7c.7-2.77-2.17-3.56-3.42-3.93-1.73-.51-5.4-1.44-7.16-1A4.53,4.53,0,0,0,666.29,164.82Z"/><path id="_Path_41" data-name="&lt;Path&gt;" class="cls-51" d="M583.17,215.39c-1.06-.21-3.52-.73-4.32,0s-.62,4,0,5.13c.93,1.67,4.64,4.54,6.48,4,1-.26,1.65-2.55,1.89-3.51s.57-3.21,0-4.05S584.24,215.59,583.17,215.39Z"/><path id="_Path_42" data-name="&lt;Path&gt;" class="cls-1" d="M596.26,242.74c-1.81-1.22,3.72,3.74,5.16,4.95,1.77,1.48,5.56,4.42,7.67,5.36a27.26,27.26,0,0,0,5.15,1.84c.79.12,3,.43,3.72.05s3.49-1.24,3-2.07c-1.15-1.82-4.95-5.43-6.18-6.91-2.66-3.18-7.44-10.07-9.71-13.53s-6.5-10.3-8.84-13.62-6.79-9.72-9.57-12.51c-1.8-1.82-2.66-3.46-4.9-4.69-2.57-1.43-11.26-5.31-14.12-6a30.12,30.12,0,0,0-7.16-.43c-1,.09-3.27.64-4,1.32-.54.52-2.11,1.62-1.89,2s2-1,2.83-1.26a19.09,19.09,0,0,1,5.39-.37c3,.27,8.89,2,11.78,3a30.9,30.9,0,0,1,6,2.52c1.49,1,3.5,3.61,4.7,5,1.73,1.95,5.16,5.9,6.75,8,1.25,1.62,3.53,5,4.66,6.74,1.81,2.73,5.24,8.29,7,11.05,1,1.63,3.12,4.88,4.17,6.5.91,1.42,3.16,4,3.68,5.65.2.61.59,2.13.12,2.57-.79.74-3.24-.25-4.29-.49a45.19,45.19,0,0,1-5.4-1.84A40.82,40.82,0,0,1,596.26,242.74Z"/><path id="_Path_43" data-name="&lt;Path&gt;" class="cls-50" d="M588.82,189.33c-.57,2.69,4.55,6.88,6,9.19,3.13,4.85,8.4,15.31,12.35,19.53,2.82,3,12.81,14.28,13.79,14.35,1.41.11,2.87-4,2.87-4.88s9.17-19.18,13.21-25c1.74-2.5,6.15-6,6.82-6.61s8.65-3.31,8.4-5.16c-.63-4.67-13.07-4.38-18.09-4.53-6.26-.18-19.1-.36-25.56-.57-4.17-.14-12.68.42-16.66,1.65C591.09,187.6,589,188.42,588.82,189.33Z"/><path id="_Path_44" data-name="&lt;Path&gt;" class="cls-1" d="M674.27,163.7a15.27,15.27,0,0,1,4.94,1.62c1.19.83,1.24,2.37,1.29,3.72a6.86,6.86,0,0,1-.92,3.37,5.48,5.48,0,0,1-1.51,1.6,18.24,18.24,0,0,0-2.82,2.69c-.35.47,2.73-3.74,3.31-6.68a6.17,6.17,0,0,0-1.07-3.87C675.71,164.34,669.64,163.31,674.27,163.7Z"/><path id="_Path_45" data-name="&lt;Path&gt;" class="cls-4" d="M580.19,216.3a6.22,6.22,0,0,1,3.37,0,5.67,5.67,0,0,1,2.53,1.69c.69,1.18,1.47,4.59.42,5.48-.67.56-2.58-.49-3.37-.85-1.39-.62-4.79-1.87-5.06-3.37C577.92,218.36,579.38,216.72,580.19,216.3Z"/><path id="_Path_46" data-name="&lt;Path&gt;" class="cls-4" d="M703,145c-.44,0-1.6.09-1.7.53-.15.65,1.37,1.52,2,1.83a9.42,9.42,0,0,0,1.84.4c.46.09,1.44.64,1.83.39a1.19,1.19,0,0,0,.27-1.05c-.34-.82-2.2-1.51-3-1.83A3.75,3.75,0,0,0,703,145Z"/></g></g><text class="cls-39" transform="translate(108.13 209.32) scale(0.96 1)">L<tspan class="cls-52" x="22.3" y="0">e</tspan><tspan x="40.15" y="0">g r</tspan><tspan class="cls-53" x="91.17" y="0">o</tspan><tspan x="112.47" y="0">a</tspan><tspan class="cls-54" x="136.6" y="0">s</tspan><tspan x="157.64" y="0">t </tspan><tspan class="cls-55" x="178.67" y="0">(</tspan><tspan x="190.5" y="0">b</tspan><tspan class="cls-56" x="211.53" y="0">o</tspan><tspan x="232.31" y="0">ne-</tspan><tspan class="cls-57" x="285.64" y="0">i</tspan><tspan x="297.38" y="0">n)</tspan></text></g><rect id="_Path_47" data-name="&lt;Path&gt;" class="cls-58" x="27.42" y="1195.1" width="757.52" height="134.96"/><g id="_Group_21" data-name="&lt;Group&gt;"><g id="_Group_22" data-name="&lt;Group&gt;"><path id="_Compound_Path_" data-name="&lt;Compound Path&gt;" class="cls-1" d="M130.55,1219a29.86,29.86,0,1,0,29.86,29.86A29.86,29.86,0,0,0,130.55,1219Z"/><path id="_Path_48" data-name="&lt;Path&gt;" class="cls-59" d="M128.4,1252.13h0l15.93,10.52-10.52-15.93h0a4,4,0,0,0-.49-.61,3.9,3.9,0,0,0-5.52,5.52A4,4,0,0,0,128.4,1252.13Z"/><line id="_Path_49" data-name="&lt;Path&gt;" class="cls-60" x1="130.55" y1="1223.61" x2="130.55" y2="1219.02"/><line id="_Path_50" data-name="&lt;Path&gt;" class="cls-60" x1="112.68" y1="1231.01" x2="109.43" y2="1227.76"/><line id="_Path_51" data-name="&lt;Path&gt;" class="cls-60" x1="105.28" y1="1248.88" x2="100.69" y2="1248.88"/><line id="_Path_52" data-name="&lt;Path&gt;" class="cls-60" x1="112.68" y1="1266.75" x2="109.43" y2="1269.99"/><line id="_Path_53" data-name="&lt;Path&gt;" class="cls-60" x1="130.55" y1="1274.15" x2="130.55" y2="1278.74"/><line id="_Path_54" data-name="&lt;Path&gt;" class="cls-60" x1="148.42" y1="1266.75" x2="151.66" y2="1269.99"/><line id="_Path_55" data-name="&lt;Path&gt;" class="cls-60" x1="155.82" y1="1248.88" x2="160.41" y2="1248.88"/><line id="_Path_56" data-name="&lt;Path&gt;" class="cls-60" x1="148.42" y1="1231.01" x2="151.66" y2="1227.76"/></g></g><text class="cls-61" transform="translate(99.49 1310.85)">Ti<tspan class="cls-62" x="20.85" y="0">m</tspan><tspan x="41.36" y="0">er</tspan></text><g id="_Group_23" data-name="&lt;Group&gt;"><g id="_Group_24" data-name="&lt;Group&gt;"><polygon class="cls-58" points="327.11 1236.7 328.63 1246.63 319.67 1242.1 310.7 1246.63 312.23 1236.7 305.15 1229.57 315.07 1227.95 319.67 1219.02 324.27 1227.95 334.19 1229.57 327.11 1236.7"/></g></g><text class="cls-63" transform="translate(265.02 1311.85)"><tspan class="cls-64">F</tspan><tspan class="cls-65" x="13.04" y="0">av</tspan><tspan x="37.07" y="0">ourites</tspan></text><text class="cls-66" transform="translate(485.94 1311.85)">Tips</text><g id="_Group_25" data-name="&lt;Group&gt;"><g id="_Group_26" data-name="&lt;Group&gt;"><path id="_Compound_Path_2" data-name="&lt;Compound Path&gt;" class="cls-67" d="M508,1219a29.86,29.86,0,1,0,29.86,29.86A29.86,29.86,0,0,0,508,1219Z"/></g></g><text class="cls-63" transform="translate(666.16 1310.85)">About</text><g id="_Group_27" data-name="&lt;Group&gt;"><g id="_Group_28" data-name="&lt;Group&gt;"><g id="_Group_29" data-name="&lt;Group&gt;"><path class="cls-1" d="M695.57,1221.31A27.57,27.57,0,1,1,668,1248.88a27.6,27.6,0,0,1,27.56-27.57m0-2.29a29.86,29.86,0,1,0,29.87,29.86A29.86,29.86,0,0,0,695.57,1219Z"/></g></g><text class="cls-68" transform="translate(688.54 1264.5)">i</text></g><g id="_Group_30" data-name="&lt;Group&gt;"><g id="_Group_31" data-name="&lt;Group&gt;"><g id="_Group_32" data-name="&lt;Group&gt;"><path class="cls-1" d="M311.58,1221.31A27.57,27.57,0,1,1,284,1248.88a27.6,27.6,0,0,1,27.57-27.57m0-2.29a29.86,29.86,0,1,0,29.86,29.86A29.86,29.86,0,0,0,311.58,1219Z"/></g></g><text class="cls-69" transform="translate(296.64 1261.68)"></text></g><path class="cls-1" d="M507.44,1260.7c-.93,0-1.85,0-2.77,0a2.29,2.29,0,0,1-2.63-2.22c-.6-4.07-2.31-7.71-4.14-11.35a10.6,10.6,0,0,1,1.43-12.37,10.19,10.19,0,0,1,11.48-3.34c4.57,1.44,7,4.89,7.67,9.56a10.9,10.9,0,0,1-1.48,6.63c-1.59,3-3.21,6.07-3.6,9.49-.34,3-1.76,4-4.58,3.6A9.07,9.07,0,0,0,507.44,1260.7Z"/><path class="cls-1" d="M504.77,1269.11H510C508.35,1271.11,506.94,1270.94,504.77,1269.11Z"/><path class="cls-1" d="M507.72,1261.69c1.1,0,2.21,0,3.31,0,.47,0,.93.15.92.75a.81.81,0,0,1-.85.88c-2.38,0-4.77,0-7.15,0a.79.79,0,0,1-.78-.93c0-.62.52-.68,1-.69C505.33,1261.67,506.53,1261.69,507.72,1261.69Z"/><path class="cls-1" d="M507.72,1264.09c1.1,0,2.21,0,3.31,0,.47,0,.93.14.92.74a.81.81,0,0,1-.85.88c-2.38,0-4.77,0-7.15,0a.78.78,0,0,1-.78-.92c0-.62.52-.69,1-.7C505.33,1264.07,506.53,1264.09,507.72,1264.09Z"/><path class="cls-1" d="M507.72,1266.5c1.1,0,2.21,0,3.31,0,.47,0,.93.14.92.75a.8.8,0,0,1-.85.87c-2.38,0-4.77,0-7.15,0a.78.78,0,0,1-.78-.92c0-.62.52-.69,1-.7C505.33,1266.48,506.53,1266.49,507.72,1266.5Z"/></g></g></g></g><rect class="cls-70" x="729.17" y="838.48" width="503.13" height="595.81" rx="76.42" ry="76.42"/><rect x="780.26" y="881.55" width="406.01" height="508.79"/><ellipse class="cls-71" cx="983.27" cy="1084.54" rx="187.86" ry="187.85"/><ellipse class="cls-72" cx="983.27" cy="1084.54" rx="169.52" ry="169.51"/><g id="_Group_33" data-name="&lt;Group&gt;"><rect x="780.26" y="881.15" width="406.01" height="60.09"/><text class="cls-73" transform="translate(1079.24 926.23)">10:00</text><text class="cls-74" transform="translate(780.26 926.23)"><tspan class="cls-75">T</tspan><tspan x="21.59" y="0">imer</tspan></text><circle class="cls-76" cx="970.42" cy="1379.28" r="7.44"/><circle class="cls-1" cx="996.69" cy="1379.28" r="7.44"/></g><text class="cls-77" transform="translate(840.55 1110.9)">0<tspan class="cls-78" x="45.67" y="0">1</tspan><tspan class="cls-79" x="74.8" y="0">:</tspan><tspan class="cls-80" x="95.08" y="0">1</tspan><tspan class="cls-81" x="127.37" y="0">0</tspan><tspan class="cls-82" x="172.7" y="0">:</tspan><tspan class="cls-80" x="194.5" y="0">34</tspan></text><rect x="782.87" y="1226.08" width="403.41" height="104.7"/><line class="cls-83" x1="780.26" y1="1226.08" x2="1186.27" y2="1226.08"/><line class="cls-84" x1="1186.27" y1="1330.78" x2="782.87" y2="1330.78"/><text class="cls-85" transform="translate(804.9 1312.25)">Start cooking your lamb.</text><text class="cls-86" transform="translate(801.15 1271.33)">N<tspan class="cls-87" x="30.26" y="0">o</tspan><tspan x="54.89" y="0">w</tspan></text><rect x="778.64" y="881.68" width="406.01" height="508.79"/><g class="cls-88"><rect class="cls-89" x="781.24" y="943.04" width="400.81" height="270.89" rx="15.62" ry="15.62"/><path class="cls-4" d="M781.24,1010.61v-52A15.61,15.61,0,0,1,796.86,943h369.57a15.62,15.62,0,0,1,15.62,15.61v52Z"/><text class="cls-90" transform="translate(798.01 992.19)">Sunday Roa<tspan class="cls-91" x="236.58" y="0">s</tspan><tspan x="258.75" y="0">t</tspan></text><text class="cls-92" transform="translate(1103.6 1155.16)">1<tspan class="cls-93" x="10.76" y="0">K</tspan><tspan class="cls-94" x="26.74" y="0">g</tspan></text><circle class="cls-4" cx="1124.47" cy="1073.81" r="39.04"/><path class="cls-95" d="M1145,1048.49l-20.52.46-20.51-.46c0,3-.53,9.86,1.33,11.88,2.54,2.77,13.72,1.43,13.72,1.43V1065l5.46-1.43,5.46,1.43v-3.17s11.18,1.34,13.72-1.43C1145.51,1058.35,1145,1051.48,1145,1048.49Z"/><path class="cls-95" d="M1124,1099.33s16.2.71,19.39-3c2.09-2.44.77-9.73,0-12.84-.88-3.56-4.05-10.59-6.82-13-3.65-3.17-4.61-3.49-12.14-4.76-5.91,1-8.44,1.59-12.09,4.76-2.77,2.41-5.94,9.44-6.82,13-.76,3.11-2.09,10.4,0,12.84,3.2,3.72,19.39,3,19.39,3"/><ellipse class="cls-4" cx="1124.47" cy="1083.84" rx="12.13" ry="12.41"/><path class="cls-4" d="M1136.18,1072.75s2.87,4.63,3.85,6.69c.46,1,1.27,2.91,1.83,4.4a23,23,0,0,1,.81,5.52,43.09,43.09,0,0,1-.57,5.57l-1.58-.77s.25-2.16.32-2.57a20.33,20.33,0,0,0,0-5.17,24.83,24.83,0,0,0-1.21-4.55Z"/><circle class="cls-1" cx="1124.46" cy="1084.35" r="1.71"/><circle class="cls-4" cx="1124.46" cy="1084.35" r="1.14"/><line class="cls-1" x1="1124.46" y1="1082.95" x2="1124.46" y2="1073.43"/><polygon class="cls-1" points="1123.8 1082.95 1124.46 1073.43 1125.11 1082.95 1123.8 1082.95"/><line class="cls-96" x1="1114.18" y1="1084.35" x2="1118.16" y2="1084.35"/><line class="cls-96" x1="1130.79" y1="1084.35" x2="1134.76" y2="1084.35"/><line class="cls-96" x1="1124.46" y1="1090.66" x2="1124.46" y2="1094.63"/><line class="cls-97" x1="1118.99" y1="1078.88" x2="1120.83" y2="1080.73"/><line class="cls-97" x1="1118.99" y1="1089.82" x2="1120.83" y2="1087.98"/><line class="cls-97" x1="1129.92" y1="1089.82" x2="1128.08" y2="1087.98"/><line class="cls-97" x1="1129.92" y1="1078.88" x2="1128.08" y2="1080.73"/><path class="cls-4" d="M1107.22,1088.9a14.14,14.14,0,0,0-.91,3.08,6.08,6.08,0,0,0,.91,3,9.86,9.86,0,0,0,4,2,23,23,0,0,0,4,0s-2.63-1-3.39-1.25a13.69,13.69,0,0,1-3.7-1.44,3.33,3.33,0,0,1-.91-1.61A24.47,24.47,0,0,1,1107.22,1088.9Z"/><text class="cls-92" transform="translate(963.72 1155.16)">Ra<tspan class="cls-98" x="30.18" y="0">r</tspan><tspan x="40.02" y="0">e</tspan></text><circle class="cls-4" cx="990.23" cy="1073.81" r="39.04"/><rect class="cls-99" x="972.45" y="1064.48" width="3.69" height="4.41" transform="translate(-458.9 884.97) rotate(-40.37)"/><line class="cls-99" x1="969.95" y1="1064.27" x2="972.71" y2="1067.51"/><line class="cls-99" x1="970.64" y1="1063.69" x2="973.39" y2="1066.93"/><line class="cls-99" x1="971.32" y1="1063.1" x2="974.08" y2="1066.35"/><line class="cls-99" x1="972" y1="1062.52" x2="974.76" y2="1065.77"/><line class="cls-99" x1="972.69" y1="1061.94" x2="975.45" y2="1065.19"/><line class="cls-99" x1="969.88" y1="1064.33" x2="972.76" y2="1061.88"/><rect class="cls-100" x="987.25" y="1054.73" width="5.96" height="7.12"/><line class="cls-100" x1="987.41" y1="1050.76" x2="987.41" y2="1057.64"/><line class="cls-100" x1="988.13" y1="1050.76" x2="988.13" y2="1057.64"/><line class="cls-100" x1="988.86" y1="1050.76" x2="988.86" y2="1057.64"/><line class="cls-100" x1="989.58" y1="1050.76" x2="989.58" y2="1057.64"/><line class="cls-100" x1="990.31" y1="1050.76" x2="990.31" y2="1057.64"/><line class="cls-100" x1="991.03" y1="1050.76" x2="991.03" y2="1057.64"/><line class="cls-100" x1="991.76" y1="1050.76" x2="991.76" y2="1057.64"/><line class="cls-100" x1="992.48" y1="1050.76" x2="992.48" y2="1057.64"/><line class="cls-100" x1="993.21" y1="1050.76" x2="993.21" y2="1057.64"/><path class="cls-100" d="M990.23,1060.76a9,9,0,1,1,9-9A9,9,0,0,1,990.23,1060.76Zm7.11-9a6.79,6.79,0,1,0-6.79,6.78A6.78,6.78,0,0,0,997.34,1051.73Z"/><line class="cls-100" x1="987.25" y1="1050.76" x2="993.36" y2="1050.76"/><circle class="cls-101" cx="990.23" cy="1082.91" r="22.04"/><circle class="cls-102" cx="990.23" cy="1082.91" r="15.97"/><line class="cls-103" x1="990.23" y1="1067.59" x2="990.23" y2="1070.22"/><line class="cls-103" x1="982.52" y1="1069.6" x2="983.84" y2="1071.88"/><line class="cls-103" x1="976.85" y1="1075.2" x2="979.13" y2="1076.52"/><line class="cls-103" x1="974.74" y1="1082.89" x2="977.37" y2="1082.89"/><line class="cls-103" x1="976.76" y1="1090.6" x2="979.04" y2="1089.28"/><line class="cls-103" x1="982.36" y1="1096.27" x2="983.68" y2="1093.99"/><line class="cls-103" x1="990.04" y1="1098.38" x2="990.04" y2="1095.74"/><line class="cls-103" x1="997.75" y1="1096.36" x2="996.44" y2="1094.08"/><line class="cls-103" x1="1003.42" y1="1090.76" x2="1001.14" y2="1089.44"/><line class="cls-103" x1="1005.53" y1="1083.08" x2="1002.9" y2="1083.08"/><line class="cls-103" x1="1003.52" y1="1075.36" x2="1001.24" y2="1076.68"/><line class="cls-103" x1="997.92" y1="1069.7" x2="996.6" y2="1071.98"/><circle class="cls-1" cx="990.14" cy="1082.98" r="1.37"/><circle class="cls-4" cx="990.14" cy="1082.98" r="0.91"/><line class="cls-1" x1="990.14" y1="1081.87" x2="991.8" y2="1069.01"/><polygon class="cls-1" points="989.35 1081.77 991.8 1069.01 990.93 1081.97 989.35 1081.77"/><text class="cls-92" transform="translate(799.78 1155.16)"><tspan class="cls-104">L</tspan><tspan x="12.96" y="0">eg Roa</tspan><tspan class="cls-105" x="91.82" y="0">s</tspan><tspan class="cls-94" x="104.88" y="0">t</tspan><tspan x="4.72" y="31.23">(Bone In)</tspan></text><circle class="cls-4" cx="855.99" cy="1073.81" r="39.04"/><path class="cls-1" d="M886.58,1053.5c.85-.54-1.84-2-2.79-1.8-.54.1-1.16,1.27-1.6,1.64-2.44,2.09-10,6.35-10.33,7s1,3,1.68,2.49C874.85,1062,885.48,1054.19,886.58,1053.5Z"/><path class="cls-106" d="M870.9,1057.56c-.83,0-2.21,1.18-3,1.49a45.36,45.36,0,0,1-5.36,1.63,54.44,54.44,0,0,1-6.72.88c-1.71.08-5.13-.31-6.85-.27a56.68,56.68,0,0,0-6.24.54,25.67,25.67,0,0,0-3.73,1.09,22.21,22.21,0,0,0-2.3.78c-.37.23-1.26.69-1.66.88a17.31,17.31,0,0,1-2.55.92,11.14,11.14,0,0,0-2.44,1.22c-.47.31-1.62.9-2.07,1.25s-1.14,1.14-1.43,1.44a5.64,5.64,0,0,0-1.25,2.19,4.47,4.47,0,0,0,.13,2.24c.49,1.06,2.41,2.52,3.33,3.26,1.13.91,2.13,3.82,3.05,5a17.81,17.81,0,0,0,2.71,2.57c.42.29,1.44.57,1.83.89.65.51,1.37,2.09,2,2.57s1.94.48,2.44.89c.93.75,2,3,3,3.65a15.72,15.72,0,0,0,1.61.62c.76.35,2,1.88,2.73,2.24a4.09,4.09,0,0,0,2.29.4,9.68,9.68,0,0,0,3.4-2.37c.6-.65,1.44-1.92,2-2.62.78-1,2.69-3,3.43-4,.36-.49,1-1.44,1.39-1.89.69-.77,2.44-1.77,3.16-2.52,1.4-1.45,3-5.25,4.14-6.91,1-1.49,3.24-4.33,4.41-5.7,1-1.13,3.16-3.13,4-4.34.58-.86,1.19-2.91,1.83-3.73l0-.46.37-1.45a4.81,4.81,0,0,0-.42-1.76C877.13,1057,873.19,1057.69,870.9,1057.56Z"/><path class="cls-1" d="M836.7,1063.68c1-.43,3.28-1.3,4.36-1.59a48.23,48.23,0,0,1,5.37-.78c1.25-.14,4.17-.17,5.43-.15s3.87.3,5,.27,2.66-.34,4.15-.53c1.16-.16,2.2-.48,3-.66s2.22-.66,3.44-1.07c.64-.22-1.76,1.24-2.4,1.48a35.69,35.69,0,0,1-5.7,1.31c-1.65.23-5,.25-6.66.3-1,0-2.91,0-3.88.07a41.27,41.27,0,0,0-4.68,1c-.84.23-2.45.9-3.29,1.1-1.3.3-4.09.61-5.38.93-.25.07-5.65,1.53-5.44,1.39A58.26,58.26,0,0,1,836.7,1063.68Z"/><path class="cls-4" d="M825.32,1073.36a5.56,5.56,0,0,1,1-.83,4.61,4.61,0,0,1,1.25-.37,8.93,8.93,0,0,1,3.26.2c.34.12,1,.45,1.31.61s.58.27.77.38c.39.21.83.36,1.19.53a16.67,16.67,0,0,1,2.09.86c1.26.91,3,3.52,4,4.75,1.09,1.4,3.17,4.28,4.14,5.76a54.41,54.41,0,0,1,3,5.43c0,.27,1.53,1.17,1.56,1.76a1.15,1.15,0,0,1-.68.82c-1.93.4-4.85-1-6.45-2.2-.28-.2-1.72-1.33-2-1.51a18.09,18.09,0,0,1-1.59-1.45l-2.51-2.18c-.72-.63-2.07-1.66-2.78-2.3a21,21,0,0,1-2.51-3.25c-.46-.7-1.09-2.28-1.63-2.92s-1.86-1.39-2.37-2A9.21,9.21,0,0,1,825.32,1073.36Z"/><path class="cls-107" d="M848.31,1093.26c-1.93.4-4.85-1-6.45-2.2-.28-.2-1.72-1.33-2-1.51a18.09,18.09,0,0,1-1.59-1.45l-2.51-2.18c-.72-.63-2.07-1.66-2.78-2.3a21,21,0,0,1-2.51-3.25c-.46-.7-1.09-2.28-1.63-2.92s-1.86-1.39-2.37-2a11.72,11.72,0,0,1-1.15-2.12,3.54,3.54,0,0,1,.9-2.13"/><path class="cls-50" d="M869.74,1060c-.33.57-.12,2-.2,2.64a13.7,13.7,0,0,1-.61,3.33c-.23.44-.95,1-1.16,1.62a2.08,2.08,0,0,0,.21,1.77c.11.12.5.39.61.27.9-1,2.48-2.54,3.87-3.93a17.48,17.48,0,0,0,1.3-1.55,9.61,9.61,0,0,0,1.07-2.8c.28-1.1-.86-1.41-1.36-1.56a7.57,7.57,0,0,0-2.85-.4A1.76,1.76,0,0,0,869.74,1060Z"/><path class="cls-108" d="M836.71,1080.14c-.43-.08-1.4-.29-1.72,0s-.25,1.59,0,2c.37.66,1.84,1.8,2.57,1.61.39-.11.66-1,.76-1.4a2.84,2.84,0,0,0,0-1.61C838.07,1080.42,837.13,1080.22,836.71,1080.14Z"/><path class="cls-1" d="M841.91,1091c-.72-.48,1.47,1.48,2.05,2a18.94,18.94,0,0,0,3,2.13,10.8,10.8,0,0,0,2,.73,3.7,3.7,0,0,0,1.48,0c.35-.19,1.39-.49,1.18-.82a36.86,36.86,0,0,0-2.46-2.75c-1-1.26-3-4-3.85-5.38s-2.59-4.09-3.52-5.41a50,50,0,0,0-3.8-5,8.58,8.58,0,0,0-2-1.86,38.38,38.38,0,0,0-5.61-2.38,11.85,11.85,0,0,0-2.85-.17,3.84,3.84,0,0,0-1.57.52c-.21.21-.84.65-.75.79s.81-.41,1.12-.5a7.38,7.38,0,0,1,2.15-.15,30.51,30.51,0,0,1,4.68,1.17,12.13,12.13,0,0,1,2.37,1,13,13,0,0,1,1.87,2c.69.77,2.05,2.34,2.69,3.17.49.64,1.4,2,1.85,2.68.72,1.08,2.08,3.29,2.78,4.39.41.64,1.24,1.94,1.66,2.58A14.19,14.19,0,0,1,848,1092c.08.24.24.84,0,1s-1.29-.1-1.71-.2a16.35,16.35,0,0,1-2.14-.73A15.68,15.68,0,0,1,841.91,1091Z"/><path class="cls-50" d="M839,1069.78c-.23,1.07,1.81,2.73,2.4,3.65,1.24,1.93,3.34,6.09,4.91,7.76,1.12,1.2,5.09,5.68,5.48,5.71.56,0,1.14-1.6,1.14-1.94a81.46,81.46,0,0,1,5.25-9.93,18.69,18.69,0,0,1,2.71-2.62c.31-.29,3.44-1.32,3.34-2.06-.25-1.85-5.2-1.74-7.19-1.8-2.49-.07-7.59-.14-10.16-.22a26.67,26.67,0,0,0-6.62.65C839.85,1069.09,839,1069.42,839,1069.78Z"/><path class="cls-1" d="M872.91,1059.59a5.94,5.94,0,0,1,2,.65,1.74,1.74,0,0,1,.51,1.47,2.73,2.73,0,0,1-.37,1.35,2.22,2.22,0,0,1-.59.63,7.08,7.08,0,0,0-1.13,1.07,9.52,9.52,0,0,0,1.32-2.66,2.44,2.44,0,0,0-.43-1.53C873.49,1059.85,871.08,1059.44,872.91,1059.59Z"/><path class="cls-4" d="M835.52,1080.5a2.44,2.44,0,0,1,1.34,0,2.24,2.24,0,0,1,1,.67c.28.47.59,1.83.17,2.18-.26.22-1-.19-1.34-.34-.55-.25-1.9-.74-2-1.34C834.62,1081.32,835.2,1080.67,835.52,1080.5Z"/><path class="cls-4" d="M884.35,1052.15c-.18,0-.64,0-.68.2s.55.61.78.73a3.66,3.66,0,0,0,.73.16c.19,0,.57.25.73.16a.49.49,0,0,0,.11-.42c-.14-.33-.88-.6-1.2-.73A1.52,1.52,0,0,0,884.35,1052.15Z"/><path class="cls-109" d="M781.24,1296.89v-52a15.62,15.62,0,0,1,15.62-15.62h369.57a15.62,15.62,0,0,1,15.62,15.62v52Z"/><rect class="cls-110" x="781.24" y="1229.31" width="400.81" height="270.89" rx="15.62" ry="15.62"/><text class="cls-111" transform="translate(802.06 1278.46)">M<tspan class="cls-112" x="35.61" y="0">ini Roa</tspan><tspan class="cls-91" x="171.83" y="0">s</tspan><tspan class="cls-112" x="194.01" y="0">t</tspan></text><text class="cls-92" transform="translate(1103.6 1441.9)">1<tspan class="cls-93" x="10.76" y="0">K</tspan><tspan class="cls-94" x="26.74" y="0">g</tspan></text><text class="cls-92" transform="translate(963.72 1441.9)">Ra<tspan class="cls-98" x="30.18" y="0">r</tspan><tspan x="40.02" y="0">e</tspan></text><text class="cls-92" transform="translate(799.78 1441.9)"><tspan class="cls-104">L</tspan><tspan x="12.96" y="0">eg Roa</tspan><tspan class="cls-105" x="91.82" y="0">s</tspan><tspan class="cls-94" x="104.88" y="0">t</tspan><tspan x="4.72" y="31.23">(Bone In)</tspan></text><text class="cls-92" transform="translate(1103.6 1442.21)">1<tspan class="cls-93" x="10.76" y="0">K</tspan><tspan class="cls-94" x="26.74" y="0">g</tspan></text><text class="cls-92" transform="translate(963.72 1442.21)">Ra<tspan class="cls-98" x="30.18" y="0">r</tspan><tspan x="40.02" y="0">e</tspan></text><text class="cls-92" transform="translate(799.78 1442.21)"><tspan class="cls-104">L</tspan><tspan x="12.96" y="0">eg Roa</tspan><tspan class="cls-105" x="91.82" y="0">s</tspan><tspan class="cls-94" x="104.88" y="0">t</tspan><tspan x="4.72" y="31.23">(Bone In)</tspan></text><circle class="cls-113" cx="1124.47" cy="1361.59" r="39.04"/><path class="cls-95" d="M1145,1336.27l-20.52.46-20.51-.46c0,3-.53,9.87,1.33,11.89,2.54,2.76,13.72,1.43,13.72,1.43v3.17l5.46-1.43,5.46,1.43v-3.17s11.18,1.33,13.72-1.43C1145.51,1346.14,1145,1339.27,1145,1336.27Z"/><path class="cls-95" d="M1124,1387.11s16.2.72,19.39-3c2.09-2.43.77-9.72,0-12.84-.88-3.56-4.05-10.59-6.82-13-3.65-3.17-4.61-3.48-12.14-4.75-5.91,1-8.44,1.58-12.09,4.75-2.77,2.41-5.94,9.44-6.82,13-.76,3.12-2.09,10.41,0,12.84,3.2,3.73,19.39,3,19.39,3"/><ellipse class="cls-113" cx="1124.47" cy="1371.63" rx="12.13" ry="12.41"/><path class="cls-113" d="M1136.18,1360.54s2.87,4.63,3.85,6.68c.46,1,1.27,2.91,1.83,4.41a23,23,0,0,1,.81,5.52,43.31,43.31,0,0,1-.57,5.57l-1.58-.78s.25-2.15.32-2.57a20.25,20.25,0,0,0,0-5.16,24.93,24.93,0,0,0-1.21-4.56C1138.77,1367.39,1136.18,1360.54,1136.18,1360.54Z"/><circle class="cls-1" cx="1124.46" cy="1372.14" r="1.71"/><circle class="cls-113" cx="1124.46" cy="1372.14" r="1.14"/><line class="cls-1" x1="1124.46" y1="1370.74" x2="1124.46" y2="1361.21"/><polygon class="cls-1" points="1123.8 1370.74 1124.46 1361.21 1125.11 1370.74 1123.8 1370.74"/><line class="cls-96" x1="1114.18" y1="1372.14" x2="1118.16" y2="1372.14"/><line class="cls-96" x1="1130.79" y1="1372.14" x2="1134.76" y2="1372.14"/><line class="cls-96" x1="1124.46" y1="1378.44" x2="1124.46" y2="1382.42"/><line class="cls-97" x1="1118.99" y1="1366.67" x2="1120.83" y2="1368.51"/><line class="cls-97" x1="1118.99" y1="1377.61" x2="1120.83" y2="1375.76"/><line class="cls-97" x1="1129.92" y1="1377.61" x2="1128.08" y2="1375.76"/><line class="cls-97" x1="1129.92" y1="1366.67" x2="1128.08" y2="1368.51"/><path class="cls-113" d="M1107.22,1376.68a14.26,14.26,0,0,0-.91,3.09,6.08,6.08,0,0,0,.91,3,9.84,9.84,0,0,0,4,2,23,23,0,0,0,4,0s-2.63-1-3.39-1.25c-1-.34-2.88-.75-3.7-1.43a3.36,3.36,0,0,1-.91-1.62A24.46,24.46,0,0,1,1107.22,1376.68Z"/><circle class="cls-113" cx="990.23" cy="1361.59" r="39.04"/><rect class="cls-99" x="972.45" y="1352.26" width="3.69" height="4.41" transform="translate(-645.29 953.49) rotate(-40.37)"/><line class="cls-99" x1="969.95" y1="1352.05" x2="972.71" y2="1355.3"/><line class="cls-99" x1="970.64" y1="1351.47" x2="973.39" y2="1354.72"/><line class="cls-99" x1="971.32" y1="1350.89" x2="974.08" y2="1354.13"/><line class="cls-99" x1="972" y1="1350.31" x2="974.76" y2="1353.55"/><line class="cls-99" x1="972.69" y1="1349.73" x2="975.45" y2="1352.97"/><line class="cls-99" x1="969.88" y1="1352.12" x2="972.76" y2="1349.66"/><rect class="cls-100" x="987.25" y="1342.51" width="5.96" height="7.12"/><line class="cls-100" x1="987.41" y1="1338.55" x2="987.41" y2="1345.43"/><line class="cls-100" x1="988.13" y1="1338.55" x2="988.13" y2="1345.43"/><line class="cls-100" x1="988.86" y1="1338.55" x2="988.86" y2="1345.43"/><line class="cls-100" x1="989.58" y1="1338.55" x2="989.58" y2="1345.43"/><line class="cls-100" x1="990.31" y1="1338.55" x2="990.31" y2="1345.43"/><line class="cls-100" x1="991.03" y1="1338.55" x2="991.03" y2="1345.43"/><line class="cls-100" x1="991.76" y1="1338.55" x2="991.76" y2="1345.43"/><line class="cls-100" x1="992.48" y1="1338.55" x2="992.48" y2="1345.43"/><line class="cls-100" x1="993.21" y1="1338.55" x2="993.21" y2="1345.43"/><path class="cls-100" d="M990.23,1348.55a9,9,0,1,1,9-9A9,9,0,0,1,990.23,1348.55Zm7.11-9a6.79,6.79,0,1,0-6.79,6.78A6.79,6.79,0,0,0,997.34,1339.52Z"/><line class="cls-100" x1="987.25" y1="1338.55" x2="993.36" y2="1338.55"/><circle class="cls-114" cx="990.23" cy="1370.69" r="22.04"/><circle class="cls-113" cx="990.23" cy="1370.69" r="15.97"/><line class="cls-103" x1="990.23" y1="1355.37" x2="990.23" y2="1358.01"/><line class="cls-103" x1="982.52" y1="1357.39" x2="983.84" y2="1359.67"/><line class="cls-103" x1="976.85" y1="1362.99" x2="979.13" y2="1364.31"/><line class="cls-103" x1="974.74" y1="1370.67" x2="977.37" y2="1370.67"/><line class="cls-103" x1="976.76" y1="1378.39" x2="979.04" y2="1377.07"/><line class="cls-103" x1="982.36" y1="1384.05" x2="983.68" y2="1381.77"/><line class="cls-103" x1="990.04" y1="1386.16" x2="990.04" y2="1383.53"/><line class="cls-103" x1="997.75" y1="1384.15" x2="996.44" y2="1381.87"/><line class="cls-103" x1="1003.42" y1="1378.55" x2="1001.14" y2="1377.23"/><line class="cls-103" x1="1005.53" y1="1370.86" x2="1002.9" y2="1370.86"/><line class="cls-103" x1="1003.52" y1="1363.15" x2="1001.24" y2="1364.47"/><line class="cls-103" x1="997.92" y1="1357.48" x2="996.6" y2="1359.76"/><circle class="cls-1" cx="990.14" cy="1370.77" r="1.37"/><circle class="cls-113" cx="990.14" cy="1370.77" r="0.91"/><line class="cls-1" x1="990.14" y1="1369.65" x2="991.8" y2="1356.8"/><polygon class="cls-1" points="989.35 1369.55 991.8 1356.8 990.93 1369.76 989.35 1369.55"/><circle class="cls-113" cx="855.99" cy="1361.59" r="39.04"/><path class="cls-1" d="M886.58,1341.29c.85-.54-1.84-2-2.79-1.8-.54.1-1.16,1.26-1.6,1.64-2.44,2.09-10,6.35-10.33,7s1,2.95,1.68,2.49C874.85,1349.79,885.48,1342,886.58,1341.29Z"/><path class="cls-115" d="M870.9,1345.35c-.83,0-2.21,1.18-3,1.49a45.36,45.36,0,0,1-5.36,1.63,56.42,56.42,0,0,1-6.72.88c-1.71.08-5.13-.31-6.85-.27a52.19,52.19,0,0,0-6.24.54,25.63,25.63,0,0,0-3.73,1.08,20.11,20.11,0,0,0-2.3.79c-.37.23-1.26.69-1.66.88a18.42,18.42,0,0,1-2.55.91,11.14,11.14,0,0,0-2.44,1.22c-.47.32-1.62.91-2.07,1.26s-1.14,1.14-1.43,1.43a5.68,5.68,0,0,0-1.25,2.2,4.44,4.44,0,0,0,.13,2.23c.49,1.06,2.41,2.52,3.33,3.26,1.13.91,2.13,3.82,3.05,4.95a17.4,17.4,0,0,0,2.71,2.58c.42.29,1.44.56,1.83.88.65.52,1.37,2.1,2,2.58s1.94.47,2.44.88c.93.76,2,3,3,3.66a15.65,15.65,0,0,0,1.61.61c.76.35,2,1.89,2.73,2.25a4.09,4.09,0,0,0,2.29.4,10,10,0,0,0,3.4-2.37c.6-.65,1.44-1.92,2-2.62.78-1,2.69-3,3.43-4,.36-.49,1-1.45,1.39-1.9.69-.76,2.44-1.77,3.16-2.51,1.4-1.45,3-5.25,4.14-6.92,1-1.49,3.24-4.32,4.41-5.7,1-1.12,3.16-3.12,4-4.34.58-.86,1.19-2.91,1.83-3.73l0-.45.37-1.45a4.77,4.77,0,0,0-.42-1.76C877.13,1344.75,873.19,1345.47,870.9,1345.35Z"/><path class="cls-1" d="M836.7,1351.46c1-.42,3.28-1.3,4.36-1.58a46,46,0,0,1,5.37-.78c1.25-.14,4.17-.18,5.43-.15s3.87.29,5,.27,2.66-.34,4.15-.54a26.85,26.85,0,0,0,3-.66c.9-.21,2.22-.65,3.44-1.07.64-.22-1.76,1.25-2.4,1.48a35.71,35.71,0,0,1-5.7,1.32c-1.65.23-5,.24-6.66.29-1,0-2.91,0-3.88.08a41.27,41.27,0,0,0-4.68,1c-.84.22-2.45.9-3.29,1.09-1.3.31-4.09.61-5.38.94-.25.06-5.65,1.53-5.44,1.38A58.26,58.26,0,0,1,836.7,1351.46Z"/><path class="cls-113" d="M825.32,1361.14a6,6,0,0,1,1-.83,5,5,0,0,1,1.25-.36,8.72,8.72,0,0,1,3.26.2c.34.11,1,.45,1.31.6s.58.27.77.38c.39.22.83.37,1.19.54a16.62,16.62,0,0,1,2.09.85c1.26.91,3,3.53,4,4.75,1.09,1.4,3.17,4.28,4.14,5.77a53.39,53.39,0,0,1,3,5.42c0,.28,1.53,1.18,1.56,1.77a1.13,1.13,0,0,1-.68.81c-1.93.41-4.85-1-6.45-2.19-.28-.2-1.72-1.34-2-1.52a18,18,0,0,1-1.59-1.44l-2.51-2.19c-.72-.62-2.07-1.66-2.78-2.29a21.57,21.57,0,0,1-2.51-3.26c-.46-.69-1.09-2.27-1.63-2.91s-1.86-1.39-2.37-2A9.23,9.23,0,0,1,825.32,1361.14Z"/><path class="cls-107" d="M848.31,1381c-1.93.41-4.85-1-6.45-2.19-.28-.2-1.72-1.34-2-1.52a18,18,0,0,1-1.59-1.44l-2.51-2.19c-.72-.62-2.07-1.66-2.78-2.29a21.57,21.57,0,0,1-2.51-3.26c-.46-.69-1.09-2.27-1.63-2.91s-1.86-1.39-2.37-2a11.73,11.73,0,0,1-1.15-2.13,3.57,3.57,0,0,1,.9-2.13"/><path class="cls-116" d="M869.74,1347.82c-.33.58-.12,2-.2,2.65a13.53,13.53,0,0,1-.61,3.32c-.23.45-.95,1-1.16,1.63a2.06,2.06,0,0,0,.21,1.76c.11.13.5.4.61.27.9-1,2.48-2.53,3.87-3.92a19,19,0,0,0,1.3-1.55,9.72,9.72,0,0,0,1.07-2.8c.28-1.1-.86-1.41-1.36-1.56a7.58,7.58,0,0,0-2.85-.41A1.83,1.83,0,0,0,869.74,1347.82Z"/><path class="cls-108" d="M836.71,1367.92c-.43-.08-1.4-.29-1.72,0s-.25,1.6,0,2c.37.67,1.84,1.81,2.57,1.61.39-.1.66-1,.76-1.39a2.84,2.84,0,0,0,0-1.61C838.07,1368.21,837.13,1368,836.71,1367.92Z"/><path class="cls-1" d="M841.91,1378.8c-.72-.49,1.47,1.48,2.05,2a17.76,17.76,0,0,0,3,2.13,10.8,10.8,0,0,0,2,.73,3.7,3.7,0,0,0,1.48,0c.35-.18,1.39-.49,1.18-.82a36.67,36.67,0,0,0-2.46-2.74c-1-1.27-3-4-3.85-5.38s-2.59-4.1-3.52-5.42a51,51,0,0,0-3.8-5,8.85,8.85,0,0,0-2-1.87,39.45,39.45,0,0,0-5.61-2.37,12.39,12.39,0,0,0-2.85-.18,3.71,3.71,0,0,0-1.57.53c-.21.21-.84.64-.75.78s.81-.41,1.12-.5a8.15,8.15,0,0,1,2.15-.15,29.42,29.42,0,0,1,4.68,1.18,12.13,12.13,0,0,1,2.37,1,12.93,12.93,0,0,1,1.87,2c.69.78,2.05,2.35,2.69,3.17.49.65,1.4,2,1.85,2.68.72,1.09,2.08,3.3,2.78,4.39.41.65,1.24,1.94,1.66,2.59a14.1,14.1,0,0,1,1.46,2.24c.08.24.24.85,0,1s-1.29-.1-1.71-.19a18,18,0,0,1-2.14-.73A16.81,16.81,0,0,1,841.91,1378.8Z"/><path class="cls-116" d="M839,1357.57c-.23,1.06,1.81,2.73,2.4,3.65,1.24,1.93,3.34,6.08,4.91,7.76,1.12,1.2,5.09,5.68,5.48,5.71.56,0,1.14-1.6,1.14-1.94a80,80,0,0,1,5.25-9.93,18.34,18.34,0,0,1,2.71-2.63c.31-.28,3.44-1.32,3.34-2-.25-1.86-5.2-1.74-7.19-1.8-2.49-.07-7.59-.14-10.16-.23a27.16,27.16,0,0,0-6.62.66C839.85,1356.88,839,1357.2,839,1357.57Z"/><path class="cls-1" d="M872.91,1347.38a6.16,6.16,0,0,1,2,.64,1.75,1.75,0,0,1,.51,1.48,2.7,2.7,0,0,1-.37,1.34,2.09,2.09,0,0,1-.59.63,7.64,7.64,0,0,0-1.13,1.08,9.69,9.69,0,0,0,1.32-2.66,2.49,2.49,0,0,0-.43-1.54C873.49,1347.63,871.08,1347.22,872.91,1347.38Z"/><path class="cls-113" d="M835.52,1368.29a2.35,2.35,0,0,1,1.34,0,2.17,2.17,0,0,1,1,.67c.28.47.59,1.82.17,2.17-.26.23-1-.19-1.34-.33-.55-.25-1.9-.75-2-1.34C834.62,1369.1,835.2,1368.45,835.52,1368.29Z"/><path class="cls-113" d="M884.35,1339.93c-.18,0-.64,0-.68.21s.55.61.78.73a3.66,3.66,0,0,0,.73.16c.19,0,.57.25.73.15a.49.49,0,0,0,.11-.42c-.14-.32-.88-.59-1.2-.72A1.53,1.53,0,0,0,884.35,1339.93Z"/></g><ellipse class="cls-117" cx="1146.34" cy="977.15" rx="24.67" ry="25.04"/><ellipse class="cls-117" cx="1146.34" cy="1265.13" rx="24.67" ry="25.04"/><line class="cls-118" x1="1146.34" y1="1252.77" x2="1146.34" y2="1278.8"/><line class="cls-118" x1="1133.33" y1="1265.78" x2="1159.35" y2="1265.78"/><path d="M1158.21,973.64l-11.5,11.5-2.17,2.16a1.44,1.44,0,0,1-1.08.45,1.47,1.47,0,0,1-1.08-.45l-2.16-2.16-5.75-5.75a1.47,1.47,0,0,1-.44-1.08,1.5,1.5,0,0,1,.44-1.08l2.16-2.16a1.5,1.5,0,0,1,1.08-.44,1.47,1.47,0,0,1,1.08.44l4.67,4.69,10.42-10.44a1.56,1.56,0,0,1,2.17,0l2.16,2.16a1.5,1.5,0,0,1,.44,1.08A1.47,1.47,0,0,1,1158.21,973.64Z"/><rect x="778.64" y="881.96" width="406.01" height="60.09"/><text class="cls-73" transform="translate(1077.62 926.36)">10:00</text><text class="cls-74" transform="translate(778.64 926.36)"><tspan class="cls-119">F</tspan><tspan class="cls-120" x="21.69" y="0">a</tspan><tspan class="cls-119" x="43.82" y="0">v</tspan><tspan x="64.45" y="0">ouri</tspan><tspan class="cls-119" x="140.11" y="0">t</tspan><tspan x="155.24" y="0">es</tspan></text></g></g></svg>