<svg xmlns="http://www.w3.org/2000/svg" viewBox="0 0 230 184"><title>mail</title><g id="Layer_2" data-name="Layer 2"><g id="Layer_1-2" data-name="Layer 1"><path d="M187.5,0H42.5A42.55,42.55,0,0,0,0,42.5v99A42.55,42.55,0,0,0,42.5,184h145A42.55,42.55,0,0,0,230,141.5v-99A42.55,42.55,0,0,0,187.5,0ZM42.5,15h145a27.45,27.45,0,0,1,20.81,9.55L115,91.76,21.69,24.55A27.45,27.45,0,0,1,42.5,15ZM215,141.5A27.54,27.54,0,0,1,187.5,169H42.5A27.54,27.54,0,0,1,15,141.5v-99a28.78,28.78,0,0,1,.3-4.07L115,110.24l99.7-71.81a28.78,28.78,0,0,1,.3,4.07Z"/></g></g></svg>